<svg xmlns="http://www.w3.org/2000/svg" width="453" height="263" viewBox="0 0 453 263">
  <g id="undraw_Vehicle_sale_a645_1_1" data-name="undraw_Vehicle_sale_a645 (1) 1" transform="translate(0 0)">
    <path id="Vector" d="M453,77c0,42.526-101.408,77-226.5,77S0,119.527,0,77,101.408,0,226.5,0,453,34.474,453,77Z" transform="translate(0 108.999)" fill="#6c63ff" opacity="0.1"/>
    <g id="Group" opacity="0.8">
      <path id="Vector-2" data-name="Vector" d="M0,0C3.84,5.867,6.786,22.955,7.607,28.1l6.864-.153C14.115,23.528,6.131,5.535,3.911.6,2.676.386,1.357.18,0,0Z" transform="translate(164.606 15.678)" fill="#ffd037" opacity="0.8"/>
      <path id="Vector-3" data-name="Vector" d="M78.861,16.527l.081-4.667,3.04.063L81.9,16.589Z" fill="#dce0ed" opacity="0.8"/>
      <path id="Vector-4" data-name="Vector" d="M.026,0,0,1.519a2.147,2.147,0,0,0,.659.111l2.38.027L3.067.063Z" transform="translate(78.916 11.86)" opacity="0.1"/>
      <path id="Vector-5" data-name="Vector" d="M7.046.06,4.176,0A3.24,3.24,0,0,0,2.241.6a3.692,3.692,0,0,0-1.3,1.676A11.479,11.479,0,0,0,1.1,11.7a2.5,2.5,0,0,0,.861.979,2.229,2.229,0,0,0,1.2.369l3.664.041Z" transform="translate(76.426 0)" fill="#dce0ed" opacity="0.8"/>
      <path id="Vector-6" data-name="Vector" d="M83.472.06c1.7.035,3.023,2.98,2.961,6.578s-1.489,6.487-3.187,6.452-3.023-2.98-2.961-6.578S81.774.025,83.472.06Z" fill="#f0f0f4" opacity="0.8"/>
      <path id="Vector-7" data-name="Vector" d="M105.878,16.557l.071-4.086,3.04.063-.071,4.086Z" fill="#dce0ed" opacity="0.8"/>
      <path id="Vector-8" data-name="Vector" d="M.023,0,0,1.3a2.147,2.147,0,0,0,.659.111l2.38.027L3.063.063Z" transform="translate(105.926 12.471)" opacity="0.1"/>
      <path id="Vector-9" data-name="Vector" d="M7.046.06,4.176,0A3.24,3.24,0,0,0,2.241.6a3.692,3.692,0,0,0-1.3,1.676A11.479,11.479,0,0,0,1.1,11.7a2.5,2.5,0,0,0,.861.979,2.229,2.229,0,0,0,1.2.369l3.664.041Z" transform="translate(103.432 0.611)" fill="#dce0ed" opacity="0.8"/>
      <path id="Vector-10" data-name="Vector" d="M110.478.671c1.7.035,3.023,2.98,2.961,6.578s-1.489,6.487-3.187,6.452-3.023-2.98-2.961-6.578S108.78.636,110.478.671Z" fill="#f0f0f4" opacity="0.8"/>
      <path id="Vector-11" data-name="Vector" d="M1.278,0s1.13.221.513,1.84A12,12,0,0,0,1.067,4.3S-.078,4.916,0,2.792A3.228,3.228,0,0,1,1.278,0Z" transform="translate(108.392 3.036)" fill="#dce0ed" opacity="0.8"/>
      <path id="Vector-12" data-name="Vector" d="M223.641,77.085c9.906.2,17.771,9.96,17.566,21.792s-8.4,21.257-18.309,21.054-17.771-9.96-17.566-21.792S213.735,76.881,223.641,77.085Z" fill="#636780" opacity="0.8"/>
      <path id="Vector-13" data-name="Vector" d="M11.972,0c9.375.881,16.649,10.343,16.451,21.726C28.265,30.9,23.3,38.63,16.455,41.542,7.08,40.661-.193,31.2,0,19.816.163,10.64,5.13,2.912,11.972,0Z" transform="translate(204.924 78.283)" opacity="0.1"/>
      <path id="Vector-14" data-name="Vector" d="M84.05,28.112c8.041.165,14.4,9.561,14.2,20.986S91.374,69.65,83.333,69.485s-14.4-9.561-14.2-20.986S76.009,27.946,84.05,28.112Z" fill="#636780" opacity="0.8"/>
      <path id="Vector-15" data-name="Vector" d="M12.069,0c5.995,2.646,10.266,10.668,10.1,20.063C22,30.1,16.818,38.369,10.108,40.112,4.113,37.467-.158,29.445,0,20.049.179,10.009,5.358,1.743,12.069,0Z" transform="translate(76.036 29.062)" opacity="0.1"/>
      <path id="Vector-16" data-name="Vector" d="M.14,11.379,0,3.865S1.407.653,2.764.387A42.725,42.725,0,0,1,7.231,0S9.476,10.835,7.8,14.041.14,11.379.14,11.379Z" transform="translate(138.318 34.127)" fill="#ffd037" opacity="0.8"/>
      <path id="Vector-17" data-name="Vector" d="M.14,11.379,0,3.865S1.407.653,2.764.387A42.725,42.725,0,0,1,7.231,0S9.476,10.835,7.8,14.041.14,11.379.14,11.379Z" transform="translate(138.318 34.127)" opacity="0.1"/>
      <path id="Vector-18" data-name="Vector" d="M18.743,11.454S19.761,1.059,14.512.764C13.837.726,13.162.694,12.49.609,8.857.15-1.055-.889.092,1.607c0,0,2.208,9.1.547,11.352Z" transform="translate(144.659 33.756)" fill="#ffd037" opacity="0.8"/>
      <path id="Vector-19" data-name="Vector" d="M8.661,23.953l-7.047.076S.643,9.869.257,8.757s-.5-6.417.834-7.163A31.632,31.632,0,0,1,6.846,0l3.1,8.128.127,7.293Z" transform="translate(79.988 39.031)" fill="#ffd037" opacity="0.8"/>
      <path id="Vector-20" data-name="Vector" d="M8.661,23.953l-7.047.076S.643,9.869.257,8.757s-.5-6.417.834-7.163A31.632,31.632,0,0,1,6.846,0l3.1,8.128.127,7.293Z" transform="translate(79.988 39.031)" opacity="0.1"/>
      <path id="Vector-21" data-name="Vector" d="M19.923,2.519,19.982.945a.982.982,0,0,0-.055-.364.921.921,0,0,0-.183-.31.833.833,0,0,0-.281-.2A.773.773,0,0,0,19.13,0C15.636.089,2.922.49.676,1.681c0,0,2.091,19.761-.676,24.4l.638,15.81,31.155-1.9Z" transform="translate(86.158 37.351)" fill="#ffd037" opacity="0.8"/>
      <path id="Vector-22" data-name="Vector" d="M3.068.354C2.206.244,1.18.121.033,0L0,1.884l3.04.063Z" transform="translate(105.877 14.673)" opacity="0.1"/>
      <path id="Vector-23" data-name="Vector" d="M0,1.132l0,.239,3.04.063L3.065,0A12.273,12.273,0,0,0,0,1.132Z" transform="translate(78.861 15.156)" opacity="0.1"/>
      <path id="Vector-24" data-name="Vector" d="M0,29.517l4.593.167,9.82-18.6,1.639-3.106L14.974,0l-.967,1.907Z" transform="translate(62.799 33.432)" fill="#dce0ed" opacity="0.8"/>
      <path id="Vector-25" data-name="Vector" d="M0,11.16l1.838,3.131,5.8-8.214,2.654-3.763L8.776,0,7.559,1.548Z" transform="translate(104.75 29.528)" fill="#dce0ed" opacity="0.8"/>
      <path id="Vector-26" data-name="Vector" d="M.035,1.548C.024,1.707.013,1.87,0,2.036L.112,6.076,2.767,2.313,1.252,0Z" transform="translate(112.274 29.528)" opacity="0.1"/>
      <path id="Vector-27" data-name="Vector" d="M0,1.907l.407,9.174L2.046,7.975.967,0Z" transform="translate(76.806 33.432)" opacity="0.1"/>
      <path id="Vector-28" data-name="Vector" d="M41.062,22.9S43.65,4.482,35.44,1.551a1.737,1.737,0,0,0-.323-.079c-1.9-.289-19.575-2.88-28.82-.424,0,0-6.3.9-6.3,4.584L1.99,50.669l4.527.093L5.546,20.99S3.609,7.989,7.2,7.179s19.9-1.947,25.615-.062c0,0,4.207-.944,3.336,10.305l.166,6.042Z" transform="translate(76.524 14.15)" fill="#dce0ed" opacity="0.8"/>
      <path id="Vector-29" data-name="Vector" d="M.006,5.724A3.069,3.069,0,0,1,.257,4.307a2.8,2.8,0,0,1,.857-1.1A60.217,60.217,0,0,1,6.339,0L7.6.136l3.622,10.348-.631,21.8-7,9.08Z" transform="translate(103.703 36.526)" fill="#ffd037" opacity="0.8"/>
      <path id="Vector-30" data-name="Vector" d="M.006,5.724A3.069,3.069,0,0,1,.257,4.307a2.8,2.8,0,0,1,.857-1.1A60.217,60.217,0,0,1,6.339,0L7.6.136l3.622,10.348-.631,21.8-7,9.08Z" transform="translate(103.703 36.526)" opacity="0.1"/>
      <path id="Vector-31" data-name="Vector" d="M20.669,31.305l.253-22.383S21.68.248,16.92,0C16.92,0,5.685-.139.776,1.487a1.07,1.07,0,0,0-.418.257,1.194,1.194,0,0,0-.276.428A1.283,1.283,0,0,0,0,2.687a1.27,1.27,0,0,0,.13.5C1.071,5.053,2.625,9.965,3.2,22.5L2.966,35.912Z" transform="translate(109.938 34.365)" fill="#ffd037" opacity="0.8"/>
      <path id="Vector-32" data-name="Vector" d="M0,14.8l20.447-.1h.02l10.049-.047L29.6,0,24.027.106,6.218,4.048.636,13.212Z" transform="translate(106.662 64.682)" fill="#ffd037" opacity="0.8"/>
      <path id="Vector-33" data-name="Vector" d="M0,14.8l20.447-.1h.02l10.049-.047L29.6,0,24.027.106,6.218,4.048.636,13.212Z" transform="translate(106.662 64.682)" opacity="0.1"/>
      <path id="Vector-34" data-name="Vector" d="M0,10.753l20.447-.1.506-9.8L6.218,0,.636,9.164Z" transform="translate(106.662 68.73)" fill="#ffd037" opacity="0.8"/>
      <path id="Vector-35" data-name="Vector" d="M0,14.7l10.049-.047L9.137,0S5.9,5.4.486,4.9Z" transform="translate(127.13 64.682)" fill="#fff" opacity="0.1"/>
      <path id="Vector-36" data-name="Vector" d="M.009,3.428c.333,4.2,3.08,3.6,3.08,3.6l.512-.04,5.072-.4L8.583.07A20.214,20.214,0,0,0,3.441.3C1.535.689-.139,1.56.009,3.428Z" transform="translate(54.824 86.311)" fill="#dce0ed" opacity="0.8"/>
      <path id="Vector-37" data-name="Vector" d="M.009,3.128c.333,4.2,3.08,3.6,3.08,3.6l.512-.04a6.007,6.007,0,0,0,.861-3.135A5.632,5.632,0,0,0,3.441,0C1.535.389-.139,1.261.009,3.128Z" transform="translate(54.824 86.611)" opacity="0.1"/>
      <path id="Vector-38" data-name="Vector" d="M0,12.16c-.118,6.81,3.537,12.408,8.164,12.5S16.64,19.315,16.758,12.5,13.221.1,8.594,0,.121,5.35,0,12.16Zm3.161.875C3.25,8.095,6.178,4.149,9.7,4.222s6.315,4.136,6.229,9.076-3.013,8.886-6.539,8.813-6.315-4.136-6.229-9.076Z" transform="translate(125.495 36.357)" fill="#636780" opacity="0.8"/>
      <path id="Vector-39" data-name="Vector" d="M5.345,3.158,1.354,7.274,0,3.49,5.738,0Z" transform="translate(128.059 49.314)" fill="#636780" opacity="0.8"/>
      <path id="Vector-40" data-name="Vector" d="M4.713,0,1.294.382,0,1.995l1.756,9.448L5.57,26.685,8.065,37.146,9.837,43.5l1.054,8.388,1.1,5.774,3.53,3.994L23,52.4l1.254-3.111,2.989-6.343-7.37-3.943-8.141-.952L8.08,27.259l-2.9-12.478Z" transform="translate(123.634 10.822)" fill="#6c63ff" opacity="0.8"/>
      <path id="Vector-41" data-name="Vector" d="M59.305,5.367l3.752,40.876L6.96,42.511l6.833-19.89,10.942-7.434L0,15.12.059,3.927,10.1,1.777,30.262.425,45.408,0,59.777,5.451" transform="translate(137.277 51.719)" fill="#ffd037" opacity="0.8"/>
      <path id="Vector-42" data-name="Vector" d="M59.305,5.367l3.752,40.876L6.96,42.511l6.833-19.89,10.942-7.434L0,15.12.059,3.927,10.1,1.777,30.262.425,45.408,0,59.777,5.451" transform="translate(137.277 51.719)" opacity="0.1"/>
      <path id="Vector-43" data-name="Vector" d="M.007,17.439C-.168,27.574,2.762,36.863,11.354,36.029,22.174,36,23.161,28.054,23.337,17.919S18.421.134,11.979,0,.183,7.3.007,17.439Z" transform="translate(119.169 78.715)" fill="#636780" opacity="0.8"/>
      <path id="Vector-44" data-name="Vector" d="M.007,16.424C.143,8.578,3.383,2.351,7.829,0c5.634,1.288,9.859,8.465,9.7,17.711-.144,8.305-.835,15.14-7.034,17.353C2.566,35.212-.162,26.213.007,16.424Z" transform="translate(119.101 79.745)" opacity="0.1"/>
      <path id="Vector-45" data-name="Vector" d="M47.329,17.612,50.555,21.8l-5.917-1.233-4.36-4.534L36.471,7.323,30.959,3.484,17.253,5.228,4.592,5.49,0,.874,5.224.209,10.5.187,23.759.133,39.537,0l3.075,9.475,2.346,6.518Z" transform="translate(61.104 62.409)" fill="#6c63ff" opacity="0.8"/>
      <path id="Vector-46" data-name="Vector" d="M2.1,84.663c.262.447,9.087,2.1,9.087,2.1l24.371,5.362,42.012,1.527,5.01-4.464,2.582.555.105.022,34.481,7.406.565-.077,9.456-1.27,49.388-6.637-.416-7.8-.247-4.6-.509-9.561-.431-2.514-4.378-.528-2.046-.248-31.913-3.854-4.172-.5-2.339-.282-22.777-3.856-33.322.2.058-11.193L64.26,0c-2.913.455-2.883,2.592-2.883,2.592L71.87,44.416l-.307,25.549C48.194,72.051,47.538,66.5,43.815,68.289l-4.19-15.624L.438,52.079C-1.153,54.108,2.1,84.663,2.1,84.663Z" transform="translate(60.667 11.205)" fill="#ffd037" opacity="0.8"/>
      <path id="Vector-47" data-name="Vector" d="M18.081,0,5.146,28.823.931,30.209,0,25.477,4.941,9.451,9.9.2Z" transform="translate(142.31 74.679)" fill="#ffd037" opacity="0.8"/>
      <path id="Vector-48" data-name="Vector" d="M18.081,0,5.146,28.823.931,30.209,0,25.477,4.941,9.451,9.9.2Z" transform="translate(142.31 74.679)" opacity="0.15"/>
      <path id="Vector-49" data-name="Vector" d="M168.408,79.042c12.434.256,22.3,12.922,22.031,28.291s-10.562,27.62-23,27.364-22.3-12.922-22.031-28.291S155.974,78.786,168.408,79.042Z" fill="#636780" opacity="0.8"/>
      <path id="Vector-50" data-name="Vector" d="M15.043,0C26.809,1.136,35.931,13.419,35.675,28.207c-.207,11.919-6.447,21.962-15.037,25.751C8.872,52.822-.251,40.538.005,25.751.212,13.831,6.452,3.789,15.043,0Z" transform="translate(145.305 80.612)" opacity="0.1"/>
      <path id="Vector-51" data-name="Vector" d="M0,0,1.016,5.747,4.123,23.356l14.689-1.244s.929-2.926-1.349-4.077c0,0-.581-9.983-3.237-13.177a2.781,2.781,0,0,0-1.05-.83Z" transform="translate(229.117 59.451)" fill="#ffd037" opacity="0.8"/>
      <path id="Vector-52" data-name="Vector" d="M0,.89,3.107,18.5,17.8,17.254s.929-2.926-1.349-4.077c0,0-.581-9.983-3.237-13.177Z" transform="translate(230.132 64.308)" fill="#fff" opacity="0.1"/>
      <path id="Vector-53" data-name="Vector" d="M58.717,13.268c-1.951,3.42,2.089,35.392,2.089,35.392l36.122-5.739-.8-27.927c-.657-5.022-3.349-5.665-3.349-5.665C80.2,2.074,51.04,0,51.04,0,24.4.556,0,8.6,0,8.6,30.354,4.141,58.717,13.268,58.717,13.268Z" transform="translate(137.336 47.049)" fill="#ffd037" opacity="0.8"/>
      <path id="Vector-54" data-name="Vector" d="M2.622,40.069,38.744,34.33,37.945,6.4C37.288,1.382,34.6.739,34.6.739S8.362-2.528.532,4.677C-1.419,8.1,2.622,40.069,2.622,40.069Z" transform="translate(195.521 55.64)" opacity="0.1"/>
      <path id="Vector-55" data-name="Vector" d="M2.183,34.193l30.2-4.909-.66-23.826c-.548-4.285-2.8-4.832-2.8-4.832S7-2.152.446,4C-1.186,6.916,2.183,34.193,2.183,34.193Z" transform="translate(199.798 59.753)" fill="#ffd037" opacity="0.8"/>
      <path id="Vector-56" data-name="Vector" d="M204.939,66.243c2.276.047,4.058,3.743,3.98,8.256s-1.987,8.134-4.263,8.087-4.058-3.743-3.98-8.256S202.663,66.2,204.939,66.243Z" opacity="0.1"/>
      <path id="Vector-57" data-name="Vector" d="M204.943,66.022c2.276.047,4.058,3.743,3.98,8.256s-1.987,8.134-4.263,8.087-4.058-3.743-3.98-8.256S202.667,65.975,204.943,66.022Z" fill="#dce0ed" opacity="0.8"/>
      <path id="Vector-58" data-name="Vector" d="M1.9,0s1.684.329.763,2.741A17.881,17.881,0,0,0,1.589,6.4S-.116,7.323.006,4.159,1.9,0,1.9,0Z" transform="translate(202.462 68.146)" fill="#f0f0f4" opacity="0.8"/>
      <path id="Vector-59" data-name="Vector" d="M227.078,63.994c2.127.044,3.792,3.5,3.719,7.715s-1.856,7.6-3.983,7.556-3.792-3.5-3.719-7.715S224.951,63.951,227.078,63.994Z" opacity="0.1"/>
      <path id="Vector-60" data-name="Vector" d="M227.082,63.773c2.127.044,3.792,3.5,3.719,7.715s-1.856,7.6-3.983,7.556-3.792-3.5-3.719-7.715S224.955,63.73,227.082,63.773Z" fill="#dce0ed" opacity="0.8"/>
      <path id="Vector-61" data-name="Vector" d="M1.9,0s1.684.329.764,2.741A17.88,17.88,0,0,0,1.589,6.4S-.116,7.323.006,4.159,1.9,0,1.9,0Z" transform="translate(224.611 65.361)" fill="#f0f0f4" opacity="0.8"/>
      <path id="Vector-62" data-name="Vector" d="M0,3.144C.22,6.169,1.184,28.575,1.184,28.575l2.3-.37L4.763,28l1.7-.274.205-.033,6.712-1.077-.91-23.767A3.1,3.1,0,0,0,11.641.835,2.619,2.619,0,0,0,9.763,0c-.067,0-.136,0-.2.007C9.1.041,8.6.084,8.076.135c-.219.022-.441.044-.666.07C6.766.276,6.1.364,5.449.468c-.333.055-.661.112-.984.174C3.917.75,3.388.87,2.9,1.008c-.332.093-.648.194-.938.305C.745,1.765-.055,2.363,0,3.144Z" transform="translate(209.645 64.447)" opacity="0.1"/>
      <path id="Vector-63" data-name="Vector" d="M0,0,.847,26.708l.745-.058L.754.122A2.535,2.535,0,0,0,0,0Z" transform="translate(219.408 64.447)" fill="#ffd037" opacity="0.8"/>
      <path id="Vector-64" data-name="Vector" d="M0,.07.759,27.037l1.149.024L.666,0C.447.022.226.044,0,.07Z" transform="translate(217.054 64.582)" fill="#ffd037" opacity="0.8"/>
      <path id="Vector-65" data-name="Vector" d="M0,.174,1.465,27.249l.744.015v-.038L.984,0C.651.055.323.112,0,.174Z" transform="translate(214.109 64.915)" fill="#ffd037" opacity="0.8"/>
      <path id="Vector-66" data-name="Vector" d="M0,.305,1.523,27.2l0,.051,1.286-.122-.01-.133L.938,0C.606.093.29.194,0,.305Z" transform="translate(211.605 65.455)" fill="#ffd037" opacity="0.8"/>
      <path id="Vector-67" data-name="Vector" d="M26.823,15S29.548,1.081,23.885.247-.45.519.008,6.273s.915,14.49.915,14.49L4.79,19.9S2.13,6.7,6.648,6.3,22.236,4.742,22.236,4.742s3-.491,1.076,11.013Z" transform="translate(211.901 72.117)" opacity="0.1"/>
      <path id="Vector-68" data-name="Vector" d="M26.808,15.883s2.74-14.8-2.922-15.636S-.45.519.008,6.273s.915,14.49.915,14.49L4.79,19.9S2.13,6.7,6.648,6.3,22.236,4.742,22.236,4.742s2.984.393,1.061,11.9Z" transform="translate(211.894 72.559)" fill="#dce0ed" opacity="0.8"/>
      <path id="Vector-69" data-name="Vector" d="M0,38.7l5,.028C8.951,21.28,15.154,10.509,15.154,10.509c2.047-1.138,24.2-.534,24.2-.534,2.291.489,2.761,8.452,2.761,8.452s-1.992,1.8-.121,3.018c.836.543,3.615.7,6.823.587A49.735,49.735,0,0,0,59.855,20.56c4.351-1.384.952-4.178.952-4.178s-.593-.9-.914-5.763a20.918,20.918,0,0,0-2.328-8.07c-.181-.342-.295-.527-.295-.527a2.329,2.329,0,0,0-.781-.555c-5.683-2.724-33.8-.819-33.8-.819L12.224,4.042a5.5,5.5,0,0,0-1.317,2.176C7.487,13.834,0,38.7,0,38.7Z" transform="translate(138.241 66.162)" fill="#ffd037" opacity="0.8"/>
      <path id="Vector-70" data-name="Vector" d="M0,38.7l5,.028C8.951,21.28,15.154,10.509,15.154,10.509c2.047-1.138,24.2-.534,24.2-.534,2.291.489,2.761,8.452,2.761,8.452s-1.992,1.8-.121,3.018c.836.543,3.615.7,6.823.587A49.735,49.735,0,0,0,59.855,20.56c4.351-1.384.952-4.178.952-4.178s-.593-.9-.914-5.763a20.918,20.918,0,0,0-2.328-8.07c-.181-.342-.295-.527-.295-.527a2.329,2.329,0,0,0-.781-.555c-5.683-2.724-33.8-.819-33.8-.819L12.224,4.042a5.5,5.5,0,0,0-1.317,2.176C7.487,13.834,0,38.7,0,38.7Z" transform="translate(138.241 66.162)" opacity="0.1"/>
      <path id="Vector-71" data-name="Vector" d="M0,6.218C9.675,2.349,36.106,5.052,36.106,5.052c2.857-2.561,8.147-2.625,10.552-2.5-.181-.342-.295-.527-.295-.527a2.329,2.329,0,0,0-.781-.555C39.9-1.257,11.783.648,11.783.648L1.317,4.042A5.5,5.5,0,0,0,0,6.218Z" transform="translate(149.148 66.162)" fill="#ffd037" opacity="0.8"/>
      <path id="Vector-72" data-name="Vector" d="M.017,4.657C.586,6.951,2.927,16.133,2.927,16.133A42.118,42.118,0,0,1,3.4,20.565a49.735,49.735,0,0,0,11.035-1.472c4.351-1.384.952-4.178.952-4.178s-.593-.9-.914-5.763a20.778,20.778,0,0,0-2.623-8.6A2.329,2.329,0,0,0,11.067,0C7.295.888-.413,2.921.017,4.657Z" transform="translate(183.663 67.629)" fill="#ffd037" opacity="0.8"/>
      <path id="Vector-73" data-name="Vector" d="M.017,4.657C.586,6.951,2.927,16.133,2.927,16.133A42.118,42.118,0,0,1,3.4,20.565a49.735,49.735,0,0,0,11.035-1.472c4.351-1.384.952-4.178.952-4.178s-.593-.9-.914-5.763a20.778,20.778,0,0,0-2.623-8.6A2.329,2.329,0,0,0,11.067,0C7.295.888-.413,2.921.017,4.657Z" transform="translate(183.663 67.629)" fill="#fff" opacity="0.1"/>
      <path id="Vector-74" data-name="Vector" d="M0,1.945,12.409,46.387,64.15,38.228,57.314,11.52s-1.06-6.1-3.738-6.594C53.576,4.926,12.213-3.769,0,1.945ZM5.759,8.912C4.089,2.913,28.672,5.9,28.672,5.9a54.14,54.14,0,0,1,11.007.514c1.357.18,2.676.386,3.911.6,2.755.472,5.094.975,6.494,1.294.891.2,1.4.329,1.4.329,4.886,1.758,7.29,23.9,7.29,23.9.365,2.327-2.16,1.778-2.16,1.778l-.164,0-2.3.05-6.864.153-33.467.736c-1.972-.262-2.232-2.808-2.232-2.808C10.553,30.607,5.759,8.912,5.759,8.912Z" transform="translate(124.928 9.26)" fill="#ffd037" opacity="0.8"/>
      <path id="Vector-75" data-name="Vector" d="M6.368,26.011l.164,0s2.525.549,2.16-1.778c0,0-2.4-22.143-7.29-23.9C1.4.329.891.2,0,0,1.72,3.831,7.22,16.942,6.368,26.011Z" transform="translate(175.011 17.569)" fill="#ffd037" opacity="0.8"/>
      <path id="Vector-76" data-name="Vector" d="M6.368,26.011l.164,0s2.525.549,2.16-1.778c0,0-2.4-22.143-7.29-23.9C1.4.329.891.2,0,0,1.72,3.831,7.22,16.942,6.368,26.011Z" transform="translate(175.011 17.569)" opacity="0.1"/>
      <path id="Vector-77" data-name="Vector" d="M.3,9.97a3.447,3.447,0,0,0,1.253,1.444,3.054,3.054,0,0,0,1.769.485l1.032-.027,9.749-.257,3.513-.093,3.248-.227L63.822,4.6,63.575,0,58.637.667,56.595.943,26.279,5.034l-3.989.539-1.935.261L12.18,5.6,3.33,5.348A3.1,3.1,0,0,0,2.02,5.6,3.3,3.3,0,0,0,.275,7.336,3.143,3.143,0,0,0,.3,9.97Z" transform="translate(175.59 87.987)" opacity="0.1"/>
      <path id="Vector-78" data-name="Vector" d="M.3,15.494a3.447,3.447,0,0,0,1.253,1.444,3.054,3.054,0,0,0,1.769.485l14.295-.377,3.248-.227L66.674,9.684l3.6-.56,1.962-.306c3.866-.8,2.79-5.024,2.79-5.024C74.79,1.873,68.2-.03,66.037,0c-1.454.019-1.7,2.455-1.7,4.052,0,.782.053,1.362.053,1.362l-2.142.29L20.355,11.357,3.33,10.872a3.064,3.064,0,0,0-1.8.5A3.468,3.468,0,0,0,.275,12.859,3.143,3.143,0,0,0,.3,15.494Z" transform="translate(175.582 82.905)" fill="#dce0ed" opacity="0.8"/>
      <path id="Vector-79" data-name="Vector" d="M4.71,0A7.728,7.728,0,0,1,0,2.7,5.085,5.085,0,0,1,4.71,0Z" transform="translate(239.971 85.619)" opacity="0.1"/>
      <path id="Vector-80" data-name="Vector" d="M69.324,0s6.015-.023,5.954,3.51-3.855,4.045-3.855,4.045L17.518,17.713l-15.274-.02s-5.257-4.748.319-6.7l15.4.759L69.347,2.578S68.031.563,69.324,0Z" transform="translate(175.711 92.475)" opacity="0.1"/>
      <path id="Vector-81" data-name="Vector" d="M2.244,17.693l15.273.02L65.448,8.68l3.507-.661,2.467-.464s3.794-.512,3.855-4.045C75.322.974,72.234.27,70.488.075A11.458,11.458,0,0,0,69.323,0c-1.293.561.024,2.577.024,2.577l-1.871.335L17.959,11.757,2.563,11C-3.012,12.945,2.244,17.693,2.244,17.693Z" transform="translate(175.703 92.918)" fill="#dce0ed" opacity="0.8"/>
      <path id="Vector-82" data-name="Vector" d="M4.891,1.718,1.743.107.123,0,0,14.874l5.019-1,2.12-1.429L8.259,6.28A18.058,18.058,0,0,0,7.7,3.47C7.5,3.245,4.891,1.718,4.891,1.718Z" transform="translate(235.667 87.793)" fill="#dce0ed" opacity="0.8"/>
      <path id="Vector-83" data-name="Vector" d="M4.891,1.718,1.743.107.123,0,0,14.874l5.019-1,2.12-1.429L8.259,6.28A18.058,18.058,0,0,0,7.7,3.47C7.5,3.245,4.891,1.718,4.891,1.718Z" transform="translate(235.667 87.793)" opacity="0.1"/>
      <path id="Vector-84" data-name="Vector" d="M.06,8.68,0,8.756l3.525-.665c.015-.024.029-.048.042-.072C5.476,4.8,5.68,2.166,5.1.075A11.458,11.458,0,0,0,3.935,0c-1.293.561.024,2.577.024,2.577l-1.871.335A9.765,9.765,0,0,1,.06,8.68Z" transform="translate(241.092 92.918)" opacity="0.1"/>
      <path id="Vector-85" data-name="Vector" d="M0,1.013q.884.393,1.634.809A11.05,11.05,0,0,1,6.062,5.8l3.6-.56A11.275,11.275,0,0,0,4.478,0L3.723.17Z" transform="translate(236.194 86.788)" opacity="0.1"/>
      <path id="Vector-86" data-name="Vector" d="M4.478,0s9.79,4.473,3.944,14.221L4.9,14.885S12.005,6.341,0,1.013Z" transform="translate(235.79 86.78)" fill="#dce0ed" opacity="0.8"/>
      <path id="Vector-87" data-name="Vector" d="M3.646.222,0,0,.331,15.988l5.9-1.057,2.522-1.274,1.2-3.142.865-3.149L8.912,4.455,6.71,2.789Z" transform="translate(213.028 90.859)" fill="#dce0ed" opacity="0.8"/>
      <path id="Vector-88" data-name="Vector" d="M3.646.222,0,0,.331,15.988l5.9-1.057,2.522-1.274,1.2-3.142.865-3.149L8.912,4.455,6.71,2.789Z" transform="translate(213.028 90.859)" opacity="0.1"/>
      <path id="Vector-89" data-name="Vector" d="M216.993,96.1c.97.02,1.731,1.486,1.7,3.275s-.843,3.223-1.813,3.2-1.731-1.486-1.7-3.275S216.022,96.076,216.993,96.1Z" fill="#dce0ed" opacity="0.8"/>
      <path id="Vector-90" data-name="Vector" d="M3.382,2.8a.959.959,0,0,1,.323.25,1.062,1.062,0,0,1,.2.371,1.126,1.126,0,0,1,.046.428,1.107,1.107,0,0,1-.118.412,7.649,7.649,0,0,0-.868,2.122c.068.471-.888.065-1.013-.048S.08,6.291,0,4.992A2.411,2.411,0,0,1,.246,3.866a2.18,2.18,0,0,1,.727-.843L.617.171,3.027,0l-.07,2.594Z" transform="translate(230.231 101.282)" fill="#636780" opacity="0.8"/>
      <path id="Vector-91" data-name="Vector" d="M3.382,2.8a.959.959,0,0,1,.323.25,1.062,1.062,0,0,1,.2.371,1.126,1.126,0,0,1,.046.428,1.107,1.107,0,0,1-.118.412,7.649,7.649,0,0,0-.868,2.122c.068.471-.888.065-1.013-.048S.08,6.291,0,4.992A2.411,2.411,0,0,1,.246,3.866a2.18,2.18,0,0,1,.727-.843L.617.171,3.027,0l-.07,2.594Z" transform="translate(230.231 101.282)" opacity="0.1"/>
      <path id="Vector-92" data-name="Vector" d="M.6,0S-.268,3.02.085,3.138.6,0,.6,0Z" transform="translate(232.362 104.01)" opacity="0.1"/>
      <path id="Vector-93" data-name="Vector" d="M.6,0S-.268,3.02.085,3.138.6,0,.6,0Z" transform="translate(231.462 103.273)" opacity="0.1"/>
      <path id="Vector-94" data-name="Vector" d="M0,2.241,1.194,11.4s1.676-.215,2.6-.413a1.741,1.741,0,0,0,.585-.185c.048-.05.147-.043.278-.012h0c.448.109,1.244.532,1.406.192a.3.3,0,0,1,.046-.072l0,0c.161-.184.467-.041.764.014a.6.6,0,0,0,.473-.059c.252-.176.752.126,1.164.232.26.067.486.059.593-.2a.583.583,0,0,1,.171-.206.523.523,0,0,1,.238-.1h0c.391-.1.935-.014,1.25-.08.124-.024.21-.073.24-.165.064-.2.414-.285.789-.355.454-.086.941-.144.981-.344a.11.11,0,0,1,.123-.095,3.814,3.814,0,0,1,.736.214h0c.2.059.37.065.421-.093.056-.173.288-.149.553-.073.214.062.449.157.631.207.163.043.281.052.3-.031.072-.292.938.388,1.151-.2A8.424,8.424,0,0,0,16.259,0s-.97.053-1.712.183a2.5,2.5,0,0,0-.717.2s-.006,0-.01,0a3.831,3.831,0,0,1-1.3.137A1.584,1.584,0,0,0,11.786.7a.5.5,0,0,0-.207.232.582.582,0,0,1-.662.307c-.383-.032-.806-.2-.963-.119l-.014.006c-.286.127-1.344-.023-1.528.165A.108.108,0,0,0,8.4,1.31c-.079.122-.492-.017-.915-.087h0a.951.951,0,0,0-.433-.036.98.98,0,0,0-.408.162.865.865,0,0,1-.662.2,3.49,3.49,0,0,0-.86.02.339.339,0,0,0-.172.114c-.176.228-.587.189-.954.2a.906.906,0,0,0-.54.137.459.459,0,0,1-.2.084,5.337,5.337,0,0,1-1.628-.122Z" transform="translate(222.504 91.684)" fill="#636780" opacity="0.8"/>
      <path id="Vector-95" data-name="Vector" d="M.787,9.42c.214.062.449.157.631.207A7.737,7.737,0,0,0,.717,0,2.5,2.5,0,0,0,0,.2C2.694,3.726,1.34,8.028.787,9.42Z" transform="translate(236.333 91.868)" opacity="0.1"/>
      <path id="Vector-96" data-name="Vector" d="M1.118,9.026a3.815,3.815,0,0,1,.736.214h0A7.731,7.731,0,0,0,.729,0,1.584,1.584,0,0,0,0,.173C2.575,3.359,1.727,7.238,1.118,9.026Z" transform="translate(234.29 92.212)" opacity="0.1"/>
      <path id="Vector-97" data-name="Vector" d="M.831,9.415c.124-.024.21-.073.24-.165.064-.2.414-.285.789-.355A7.647,7.647,0,0,0,.977.141C.595.109.172-.059.014.022L0,.028C2.845,3.639,1.364,8.1.831,9.415Z" transform="translate(232.444 92.783)" opacity="0.1"/>
      <path id="Vector-98" data-name="Vector" d="M1.033,9.873c.26.067.486.059.593-.2A.583.583,0,0,1,1.8,9.471a.523.523,0,0,1,.238-.1h0A7.728,7.728,0,0,0,.929.07.108.108,0,0,0,.915.087C.836.209.423.071,0,0,3.348,3.825,1.506,8.775,1.033,9.873Z" transform="translate(229.987 92.906)" opacity="0.1"/>
      <path id="Vector-99" data-name="Vector" d="M1,9.379c.161-.184.467-.041.764.014A7.719,7.719,0,0,0,.86.018,3.49,3.49,0,0,0,0,.037C2.863,3.525,1.582,7.867,1,9.379Z" transform="translate(227.621 93.214)" opacity="0.1"/>
      <path id="Vector-100" data-name="Vector" d="M.541,9.107a1.742,1.742,0,0,0,.585-.185c.048-.05.147-.043.278-.012h0A7.65,7.65,0,0,0,.736,0,.906.906,0,0,0,.2.139.459.459,0,0,1,0,.223C2.367,3.685,1.076,7.768.541,9.107Z" transform="translate(225.758 93.564)" opacity="0.1"/>
      <path id="Vector-101" data-name="Vector" d="M161,90.378c6.082.125,10.875,8.137,10.706,17.895s-5.237,17.567-11.319,17.442-10.875-8.137-10.706-17.895S154.915,90.252,161,90.378Z" fill="#636780" opacity="0.8"/>
      <path id="Vector-102" data-name="Vector" d="M161.306,93.992c4.422.091,7.895,6.575,7.758,14.483s-3.833,14.245-8.254,14.154-7.895-6.575-7.758-14.483S156.884,93.9,161.306,93.992Z" opacity="0.1"/>
      <path id="Vector-103" data-name="Vector" d="M161.314,93.551c4.422.091,7.895,6.575,7.758,14.483s-3.833,14.245-8.254,14.154-7.895-6.575-7.758-14.483S156.892,93.46,161.314,93.551Z" fill="#f0f0f4" opacity="0.8"/>
      <path id="Vector-104" data-name="Vector" d="M159.81,96.466c.522.011.932.811.915,1.786s-.454,1.758-.976,1.747-.932-.811-.915-1.786S159.288,96.455,159.81,96.466Z" fill="#636780" opacity="0.8"/>
      <path id="Vector-105" data-name="Vector" d="M155.759,111.847c.522.011.932.811.915,1.786s-.454,1.758-.976,1.747-.932-.811-.915-1.786S155.236,111.837,155.759,111.847Z" fill="#636780" opacity="0.8"/>
      <path id="Vector-106" data-name="Vector" d="M166.088,104.7c.522.011.932.811.915,1.786s-.454,1.758-.976,1.747-.932-.811-.915-1.786S165.565,104.685,166.088,104.7Z" fill="#636780" opacity="0.8"/>
      <path id="Vector-107" data-name="Vector" d="M163.139,114.945c.522.011.932.81.915,1.786s-.454,1.758-.976,1.747-.932-.81-.915-1.786S162.617,114.934,163.139,114.945Z" fill="#636780" opacity="0.8"/>
      <path id="Vector-108" data-name="Vector" d="M12.441,0s-8.3,22.806-7.922,24.25c0,0-3.382,2.14-4.184,1.571S.42,15.107.42,15.107L2.095,6.194,3.91.929Z" transform="translate(68.217 73.701)" fill="#ffd037" opacity="0.8"/>
      <path id="Vector-109" data-name="Vector" d="M12.441,0s-8.3,22.806-7.922,24.25c0,0-3.382,2.14-4.184,1.571S.42,15.107.42,15.107L2.095,6.194,3.91.929Z" transform="translate(68.217 73.701)" opacity="0.15"/>
      <path id="Vector-110" data-name="Vector" d="M154.573,102.249c.522.011.932.81.915,1.786s-.454,1.758-.976,1.747-.932-.811-.915-1.786S154.051,102.239,154.573,102.249Z" fill="#636780" opacity="0.8"/>
      <path id="Vector-111" data-name="Vector" d="M159.676,104.2c1.53.031,2.737,1.936,2.7,4.253s-1.313,4.171-2.843,4.139-2.737-1.936-2.7-4.253S158.146,104.164,159.676,104.2Z" fill="#636780" opacity="0.8"/>
      <path id="Vector-112" data-name="Vector" d="M.01,22.877c-.23,13.3,3.613,25.481,14.885,24.388,14.193-.039,15.489-10.463,15.72-23.758S24.165.176,15.714,0,.24,9.582.01,22.877Z" transform="translate(71.3 81.341)" fill="#636780" opacity="0.8"/>
      <path id="Vector-113" data-name="Vector" d="M.01,21.546C.188,11.253,4.438,3.084,10.27,0,17.661,1.69,23.2,11.1,22.993,23.234,22.8,34.13,21.9,43.095,13.766,46,3.366,46.192-.213,34.387.01,21.546Z" transform="translate(71.211 82.693)" opacity="0.1"/>
      <path id="Vector-114" data-name="Vector" d="M0,29.979S1.994,31.9,3.132,30.6c0,0,3.15-23.8,6.6-23.835l11.859.134S23,7.586,23.553,10.47l7.255,23.937,42.012,1.527,3.335-7.26-34.762-.6,0-.018C41.215,27.314,35.8,4.6,31.945,1.706l-.006,0a1.647,1.647,0,0,0-.424-.236S17.06-.932,12.272.406c0,0-4.987,1.112-6.232,2.744l-.01.013c-.165.182-2.086,2.451-2.783,9.1Z" transform="translate(65.428 68.484)" opacity="0.1"/>
      <path id="Vector-115" data-name="Vector" d="M0,29.979S1.994,31.9,3.132,30.6c0,0,3.15-23.8,6.6-23.835l11.859.134s1.407.692,1.966,3.575l7.255,23.937,42.012,1.527,3.335-7.26-34.762-.6,0-.018C41.215,27.314,35.8,4.6,31.945,1.706l-.006,0a1.647,1.647,0,0,0-.424-.236S17.06-.932,12.272.406c0,0-4.987,1.113-6.232,2.744l-.01.013c-.165.182-2.086,2.451-2.783,9.1Z" transform="translate(65.42 68.926)" fill="#ffd037" opacity="0.8"/>
      <path id="Vector-116" data-name="Vector" d="M0,29.979S1.994,31.9,3.132,30.6c0,0,3.15-23.8,6.6-23.835l11.859.134s1.407.692,1.966,3.575l7.255,23.937,42.012,1.527,3.335-7.26-34.762-.6,0-.018C41.215,27.314,35.8,4.6,31.945,1.706l-.006,0a1.647,1.647,0,0,0-.424-.236S17.06-.932,12.272.406c0,0-4.987,1.113-6.232,2.744l-.01.013c-.165.182-2.086,2.451-2.783,9.1Z" transform="translate(65.42 68.926)" opacity="0.1"/>
      <path id="Vector-117" data-name="Vector" d="M.076,2.747C1.053,4.866,9.32,30.885,9.32,30.885l5.958-4.517,0-.018C15.1,25.613,9.678,2.872,5.823,0,3.277.42-.589,1.309.076,2.747Z" transform="translate(91.537 70.627)" fill="#ffd037" opacity="0.8"/>
      <path id="Vector-118" data-name="Vector" d="M42.063.269l4.468,17.1,24.842-.262-.247,2.536s-19.511,2.692-27.748-1.676L39.189,2.346,0,1.76,7.5,0Z" transform="translate(61.104 61.522)" fill="#ffd037" opacity="0.8"/>
      <path id="Vector-119" data-name="Vector" d="M42.063.269l4.468,17.1,24.842-.262-.247,2.536s-19.511,2.692-27.748-1.676L39.189,2.346,0,1.76,7.5,0Z" transform="translate(61.104 61.522)" fill="#fff" opacity="0.1"/>
      <path id="Vector-120" data-name="Vector" d="M5.675.117s13.183,7.562,3.2,14.205l-2.646.608S16.022,7.547,0,0Z" transform="translate(213.434 90.868)" opacity="0.1"/>
      <path id="Vector-121" data-name="Vector" d="M5.675.117s13.183,7.562,3.2,14.205l-2.646.608S16.022,7.547,0,0Z" transform="translate(213.028 90.859)" fill="#dce0ed" opacity="0.8"/>
      <path id="Vector-122" data-name="Vector" d="M80.941,92.486c4.086.084,7.291,6.332,7.159,13.956s-3.551,13.735-7.637,13.651-7.291-6.332-7.159-13.956S76.855,92.4,80.941,92.486Z" fill="#636780" opacity="0.8"/>
      <path id="Vector-123" data-name="Vector" d="M81.14,95.406c2.97.061,5.291,5.119,5.184,11.3s-2.6,11.137-5.572,11.076-5.291-5.119-5.184-11.3S78.17,95.345,81.14,95.406Z" opacity="0.1"/>
      <path id="Vector-124" data-name="Vector" d="M81.148,94.964c2.97.061,5.291,5.119,5.184,11.3s-2.6,11.137-5.572,11.076-5.291-5.119-5.184-11.3S78.177,94.9,81.148,94.964Z" fill="#f0f0f4" opacity="0.8"/>
      <path id="Vector-125" data-name="Vector" d="M80.132,97.245c.351.007.625.631.611,1.393s-.308,1.374-.659,1.367-.625-.631-.611-1.393S79.781,97.237,80.132,97.245Z" fill="#636780" opacity="0.8"/>
      <path id="Vector-126" data-name="Vector" d="M77.381,109.27c.351.007.625.631.611,1.393s-.308,1.374-.659,1.367-.625-.631-.611-1.393S77.03,109.263,77.381,109.27Z" fill="#636780" opacity="0.8"/>
      <path id="Vector-127" data-name="Vector" d="M84.334,103.66c.351.007.625.631.611,1.393s-.308,1.374-.659,1.367-.625-.631-.611-1.393S83.983,103.653,84.334,103.66Z" fill="#636780" opacity="0.8"/>
      <path id="Vector-128" data-name="Vector" d="M82.334,111.673c.351.007.625.631.611,1.393s-.308,1.374-.659,1.367-.625-.631-.611-1.393S81.983,111.666,82.334,111.673Z" fill="#636780" opacity="0.8"/>
      <path id="Vector-129" data-name="Vector" d="M76.6,101.775c.351.007.625.631.611,1.393s-.308,1.374-.659,1.367-.625-.631-.611-1.393S76.252,101.767,76.6,101.775Z" fill="#636780" opacity="0.8"/>
      <path id="Vector-130" data-name="Vector" d="M80.027,103.283c1.028.021,1.835,1.506,1.8,3.317s-.89,3.261-1.918,3.24-1.835-1.506-1.8-3.317S79,103.262,80.027,103.283Z" fill="#636780" opacity="0.8"/>
      <path id="Vector-131" data-name="Vector" d="M51.85,0S29.337.42,0,8.543Z" transform="translate(137.336 47.103)" opacity="0.1"/>
      <path id="Vector-132" data-name="Vector" d="M1.377,0s1.218.238.552,1.982A12.933,12.933,0,0,0,1.15,4.629S-.084,5.3,0,3.008A3.478,3.478,0,0,1,1.377,0Z" transform="translate(81.213 1.978)" fill="#dce0ed" opacity="0.8"/>
      <path id="Vector-133" data-name="Vector" d="M.589,1.329a.589.589,0,0,0,.418-.2A.7.7,0,0,0,1.178.665.7.7,0,0,0,1.007.2.589.589,0,0,0,.589,0,.589.589,0,0,0,.171.2.7.7,0,0,0,0,.665a.7.7,0,0,0,.171.462.589.589,0,0,0,.418.2Z" transform="translate(126.739 139.43)" fill="#ffd037" opacity="0.8"/>
    </g>
    <path id="Vector-134" data-name="Vector" d="M15.189,1.4c0,.773-3.4,1.4-7.595,1.4S0,2.172,0,1.4,3.4,0,7.595,0,15.189.626,15.189,1.4Z" transform="translate(262.378 198.721)" fill="#6c63ff" opacity="0.1"/>
    <path id="Vector-135" data-name="Vector" d="M0,2.551s4.332-.145,5.638-1.158S12.3-.83,12.626.794s6.51,8.081,1.619,8.124-11.364-.83-12.668-1.7S0,2.551,0,2.551Z" transform="translate(264.873 191.068)" fill="#a8a8a8"/>
    <path id="Vector-136" data-name="Vector" d="M14.332,5.808c-4.891.043-11.364-.83-12.668-1.7C.672,3.454.277,1.09.145,0L0,.006S.274,3.813,1.577,4.678s7.777,1.738,12.668,1.7c1.412-.012,1.9-.56,1.873-1.37C15.922,5.493,15.383,5.8,14.332,5.808Z" transform="translate(264.873 193.613)" opacity="0.2"/>
    <path id="Vector-137" data-name="Vector" d="M11.688,1.077c0,.595-2.617,1.077-5.844,1.077S0,1.671,0,1.077,2.616,0,5.844,0,11.688.482,11.688,1.077Z" transform="translate(308.18 182.742)" fill="#6c63ff" opacity="0.1"/>
    <path id="Vector-138" data-name="Vector" d="M0,1.963s3.334-.112,4.338-.891S9.466-.639,9.715.611s5.01,6.218,1.246,6.251-8.745-.639-9.748-1.3S0,1.963,0,1.963Z" transform="translate(310.099 176.853)" fill="#a8a8a8"/>
    <path id="Vector-139" data-name="Vector" d="M11.029,4.469c-3.764.033-8.745-.639-9.748-1.3C.517,2.658.213.839.111,0L0,0s.211,2.93,1.214,3.6S7.2,4.937,10.962,4.9c1.086-.01,1.462-.431,1.441-1.055C12.252,4.227,11.837,4.462,11.029,4.469Z" transform="translate(310.099 178.811)" opacity="0.2"/>
    <path id="Vector-140" data-name="Vector" d="M27.9,2.57c0,1.419-6.246,2.57-13.952,2.57S0,3.989,0,2.57,6.246,0,13.952,0,27.9,1.151,27.9,2.57Z" transform="translate(273.556 249.307)" fill="#6c63ff" opacity="0.1"/>
    <path id="Vector-141" data-name="Vector" d="M0,4.686s7.958-.267,10.357-2.128S22.6-1.525,23.194,1.459,35.153,16.3,26.168,16.383,5.292,14.858,2.9,13.269,0,4.686,0,4.686Z" transform="translate(278.138 235.249)" fill="#a8a8a8"/>
    <path id="Vector-142" data-name="Vector" d="M26.329,10.669c-8.985.079-20.877-1.525-23.271-3.114C1.235,6.345.509,2,.266,0L0,.011S.5,7.005,2.9,8.594s14.286,3.193,23.271,3.114c2.594-.023,3.489-1.028,3.44-2.517C29.248,10.09,28.259,10.652,26.329,10.669Z" transform="translate(278.138 239.924)" opacity="0.2"/>
    <path id="Vector-143" data-name="Vector" d="M72.654,39.571A41.537,41.537,0,0,1,62.56,66.953,35.081,35.081,0,0,1,37.888,79.118a34.547,34.547,0,0,1-25.539-9.813A40.917,40.917,0,0,1,.137,42.968c-.053-.643-.092-1.286-.11-1.938V41Q0,40.283,0,39.571A41.454,41.454,0,0,1,10.644,11.589,34.878,34.878,0,0,1,36.327,0,34.878,34.878,0,0,1,62.009,11.589,41.454,41.454,0,0,1,72.654,39.571Z" transform="translate(362.165 121.84)" fill="#ffd037"/>
    <path id="Vector-144" data-name="Vector" d="M72.654,39.571A41.537,41.537,0,0,1,62.56,66.953,35.081,35.081,0,0,1,37.888,79.118a34.547,34.547,0,0,1-25.539-9.813A40.917,40.917,0,0,1,.137,42.968c-.053-.643-.092-1.286-.11-1.938V41Q0,40.283,0,39.571A41.454,41.454,0,0,1,10.644,11.589,34.878,34.878,0,0,1,36.327,0,34.878,34.878,0,0,1,62.009,11.589,41.454,41.454,0,0,1,72.654,39.571Z" transform="translate(362.165 121.84)" opacity="0.2"/>
    <path id="Vector-145" data-name="Vector" d="M39.629,21.591c0,11.925-8.871,21.591-19.815,21.591S0,33.516,0,21.591,8.871,0,19.815,0,39.629,9.667,39.629,21.591Z" transform="translate(378.676 139.82)" fill="#dce0ed"/>
    <path id="Vector-146" data-name="Vector" d="M23.778,12.955c0,7.155-5.323,12.955-11.889,12.955S0,20.109,0,12.955,5.323,0,11.889,0,23.778,5.8,23.778,12.955Z" transform="translate(386.602 148.456)" fill="#ffd037"/>
    <path id="Vector-147" data-name="Vector" d="M72.654,39.571A41.537,41.537,0,0,1,62.56,66.953,35.081,35.081,0,0,1,37.888,79.118a34.547,34.547,0,0,1-25.539-9.813A40.917,40.917,0,0,1,.137,42.968c-.053-.643-.092-1.286-.11-1.938V41Q0,40.283,0,39.571A41.454,41.454,0,0,1,10.644,11.589,34.878,34.878,0,0,1,36.327,0,34.878,34.878,0,0,1,62.009,11.589,41.454,41.454,0,0,1,72.654,39.571Z" transform="translate(168.232 121.84)" fill="#ffd037"/>
    <path id="Vector-148" data-name="Vector" d="M72.654,39.571A41.537,41.537,0,0,1,62.56,66.953,35.081,35.081,0,0,1,37.888,79.118a34.547,34.547,0,0,1-25.539-9.813A40.917,40.917,0,0,1,.137,42.968c-.053-.643-.092-1.286-.11-1.938V41Q0,40.283,0,39.571A41.454,41.454,0,0,1,10.644,11.589,34.878,34.878,0,0,1,36.327,0,34.878,34.878,0,0,1,62.009,11.589,41.454,41.454,0,0,1,72.654,39.571Z" transform="translate(168.232 121.84)" opacity="0.2"/>
    <path id="Vector-149" data-name="Vector" d="M39.629,21.591c0,11.925-8.871,21.591-19.815,21.591S0,33.516,0,21.591,8.871,0,19.815,0,39.629,9.667,39.629,21.591Z" transform="translate(184.744 139.82)" fill="#dce0ed"/>
    <path id="Vector-150" data-name="Vector" d="M23.778,12.955c0,7.155-5.323,12.955-11.889,12.955S0,20.109,0,12.955,5.323,0,11.889,0,23.778,5.8,23.778,12.955Z" transform="translate(192.67 148.456)" fill="#ffd037"/>
    <path id="Vector-151" data-name="Vector" d="M272.518,80.968,260.4,80.394,249.331,58l-39-3.445L191.362,81.542l1.054,7.465L189.781,95.9,65.938,97.047V93.6H64.884L63.83,88.433h9.486l-6.851-8.039L42.223,58S.591,59.147.064,58s2.371-12.92,2.371-12.92l17.918-5.742,61.131-5.168C94.922,10.911,107.043,0,107.043,0H264.087l7.378,41.345v.1Z" transform="translate(173.631 73.025)" fill="#444053"/>
    <path id="Vector-152" data-name="Vector" d="M.933,32.158S16.742,0,28.863,0H58.375s7.378,0,10.54,6.317L81.035,32.158H71.549S63.645,8.039,54.686,7.465s-24.242,0-24.242,0-5.27,0-8.432,6.891S8.16,36.257,8.16,36.257-3.283,40.2.933,32.158Z" transform="translate(357.736 124.707)" fill="#33323d"/>
    <path id="Vector-153" data-name="Vector" d="M20.026,0H.2L0,17.227l20.026-5.168Z" transform="translate(432.974 151.697)" fill="#33323d"/>
    <path id="Vector-154" data-name="Vector" d="M0,14.93S1.054,6.317,8.432,2.871L56.915,0s7.9.574,12.121,11.485l13.7,22.4v3.445H67.455S60.077,6.891,39,8.039H13.7s-5.8,0-7.9,10.336Z" transform="translate(166.317 126.43)" fill="#33323d"/>
    <path id="Vector-155" data-name="Vector" d="M0,6.317H161.786a6.615,6.615,0,0,0-1.7-4.467,5.566,5.566,0,0,0-4.1-1.85H5.8A5.386,5.386,0,0,0,3.579.481,5.791,5.791,0,0,0,1.7,1.85,6.382,6.382,0,0,0,.441,3.9,6.811,6.811,0,0,0,0,6.317Z" transform="translate(280.147 70.154)" fill="#33323d"/>
    <path id="Vector-156" data-name="Vector" d="M47.8,31.009H3.027a2.832,2.832,0,0,1-1.444-.4,3.145,3.145,0,0,1-1.094-1.1,3.5,3.5,0,0,1-.479-1.537,3.561,3.561,0,0,1,.251-1.6L7.345,9a14.887,14.887,0,0,1,5.132-6.554A13.1,13.1,0,0,1,20.058,0h27.2a3.539,3.539,0,0,1,1.458.316,3.805,3.805,0,0,1,1.236.9,4.194,4.194,0,0,1,.826,1.347,4.476,4.476,0,0,1,.29,1.588V27.444a3.845,3.845,0,0,1-.249,1.364,3.6,3.6,0,0,1-.709,1.157,3.269,3.269,0,0,1-1.061.773A3.04,3.04,0,0,1,47.8,31.009Z" transform="translate(267.022 79.342)" fill="#6c63ff" opacity="0.3"/>
    <path id="Vector-157" data-name="Vector" d="M2.253,0H41.488A2.36,2.36,0,0,1,43.74,2.455v26.1a2.36,2.36,0,0,1-2.253,2.455H2.253A2.36,2.36,0,0,1,0,28.555V2.455A2.36,2.36,0,0,1,2.253,0Z" transform="translate(329.684 79.342)" fill="#6c63ff" opacity="0.3"/>
    <path id="Vector-158" data-name="Vector" d="M69.753,41.345v.1L1.771,42.494,0,0H62.374Z" transform="translate(375.343 73.026)" fill="#33323d"/>
    <path id="Vector-159" data-name="Vector" d="M2.253,0H47.812a2.36,2.36,0,0,1,2.253,2.455v26.1a2.36,2.36,0,0,1-2.253,2.455H2.253A2.36,2.36,0,0,1,0,28.555V2.455A2.36,2.36,0,0,1,2.253,0Z" transform="translate(382.91 79.342)" fill="#6c63ff" opacity="0.3"/>
    <path id="Vector-160" data-name="Vector" d="M.716,0H16.148a.75.75,0,0,1,.716.78V2.666a.75.75,0,0,1-.716.78H.716A.75.75,0,0,1,0,2.666V.78A.75.75,0,0,1,.716,0Z" transform="translate(304.389 121.262)" fill="#33323d"/>
    <path id="Vector-161" data-name="Vector" d="M.716,0H16.148a.75.75,0,0,1,.716.78V2.666a.75.75,0,0,1-.716.78H.716A.75.75,0,0,1,0,2.666V.78A.75.75,0,0,1,.716,0Z" transform="translate(352.872 121.262)" fill="#33323d"/>
    <path id="Vector-162" data-name="Vector" d="M19.384,51.969c-2.52,2.985-4.374,4.16-4.287,1.011C15.362,43.452,0,.375,0,.375L4.544,0C14.459,18.634,18.144,37.781,19.384,51.969Z" transform="translate(131.324 133.298)" fill="none"/>
    <path id="Vector-163" data-name="Vector" d="M43.718,23.788a24.994,24.994,0,0,1-6.073,16.477A21.109,21.109,0,0,1,22.8,47.586a20.788,20.788,0,0,1-15.368-5.9A24.621,24.621,0,0,1,.082,25.832c-.032-.387-.056-.774-.066-1.166v-.02Q0,24.217,0,23.788A24.941,24.941,0,0,1,6.412,6.966,20.986,20.986,0,0,1,21.859,0,20.987,20.987,0,0,1,37.306,6.966,24.941,24.941,0,0,1,43.718,23.788Z" transform="translate(128.666 182.266)" fill="#ffd037"/>
    <path id="Vector-164" data-name="Vector" d="M23.846,12.992c0,7.175-5.338,12.992-11.923,12.992S0,20.168,0,12.992,5.338,0,11.923,0,23.846,5.817,23.846,12.992Z" transform="translate(138.601 193.062)" fill="#dce0ed"/>
    <path id="Vector-165" data-name="Vector" d="M14.308,7.8c0,4.305-3.2,7.8-7.154,7.8S0,12.1,0,7.8,3.2,0,7.154,0,14.308,3.49,14.308,7.8Z" transform="translate(143.371 198.258)" fill="#ffd037"/>
    <path id="Vector-166" data-name="Vector" d="M52.637,17.508,0,18.662V10.194C.472,3.389,6.876,1,12.721.254a33.609,33.609,0,0,1,13.6,1.112c11.168,3.222,18.29,3.846,21.788,3.906a3.185,3.185,0,0,1,2.1.854,3.721,3.721,0,0,1,1.132,2.108c.167.967.331,2.021.485,3.06.117.814.228,1.617.329,2.365C52.443,15.827,52.637,17.508,52.637,17.508Z" transform="translate(40.482 143.313)" fill="#ffd037"/>
    <path id="Vector-167" data-name="Vector" d="M113.611,74.295H4.266a4.049,4.049,0,0,1-2.381-.751A4.608,4.608,0,0,1,.278,71.486a3.369,3.369,0,0,1,1.558-4.316A13.318,13.318,0,0,0,7.22,59.992c1.166-3.739,2.305-9.626,2.753-18.8.461-9.49,3.614-14.182,7.021-16.454h0A12.9,12.9,0,0,1,26.223,22.9l44.335.387a8.489,8.489,0,0,1,2.165,1.539c3.951,4.007-1.81,9.239-1.81,9.239a24.219,24.219,0,0,0-3,28.678H90.594a19.688,19.688,0,0,0,11.883-3.964,12.745,12.745,0,0,0,4.711-5.893c.35-1.034.7-2.064,1.129-3.063,5.951-14.063-1.227-36.941-4.324-45.5C103.225,2.2,102.708.961,102.708.961l7.114-.586,4.5-.372.045,0c9.915,18.634,13.6,37.781,14.84,51.969.117,1.337.212,2.633.289,3.877a18.763,18.763,0,0,1-.9,6.972,17.66,17.66,0,0,1-3.371,6.006,15.976,15.976,0,0,1-5.286,4.049,14.785,14.785,0,0,1-6.328,1.423Z" transform="translate(21.501 133.298)" fill="#6c63ff"/>
    <path id="Vector-168" data-name="Vector" d="M52.154,2.365H0V0H51.826C51.942.814,52.054,1.617,52.154,2.365Z" transform="translate(40.483 154.608)" opacity="0.1"/>
    <path id="Vector-169" data-name="Vector" d="M55.726,2.128H.419A.972.972,0,0,1,0,2.035,12.9,12.9,0,0,1,9.226.2L53.561.589A8.489,8.489,0,0,1,55.726,2.128Z" transform="translate(38.498 155.999)" opacity="0.1"/>
    <path id="Vector-170" data-name="Vector" d="M1.084,0H76.2a1.136,1.136,0,0,1,1.084,1.182h0A1.136,1.136,0,0,1,76.2,2.363H1.084A1.136,1.136,0,0,1,0,1.182H0A1.136,1.136,0,0,1,1.084,0Z" transform="translate(18.481 155.186)" fill="#dce0ed"/>
    <path id="Vector-171" data-name="Vector" d="M19.384,51.969c-2.52,2.985-4.374,4.16-4.287,1.011C15.362,43.452,0,.375,0,.375L4.544,0C14.459,18.634,18.144,37.781,19.384,51.969Z" transform="translate(131.324 133.298)" opacity="0.1"/>
    <path id="Vector-172" data-name="Vector" d="M43.57,21.209c-2.61.681-5.837,1.374-9.817,2.009q-2.218.355-4.759.681c-4.062.525-8.76.985-14.186,1.337q-2.305.152-4.788.274-4.65.23-9.954.352L0,24.7v-.02C4.941,22.5,12.715,16.7,13.969,1.594a20.226,20.226,0,0,1,9.814-1.5A20.662,20.662,0,0,1,33.2,3.47a22.891,22.891,0,0,1,7.08,7.555A25.249,25.249,0,0,1,43.57,21.209Z" transform="translate(128.682 182.235)" opacity="0.1"/>
    <path id="Vector-173" data-name="Vector" d="M0,44.626S25.092,41.664,16.454,0c0,0,12.4,12.384,20.11,19.268S58.021,35.641,58.021,35.641,49.812,44,0,44.626Z" transform="translate(124.562 162.967)" fill="#6c63ff"/>
    <path id="Vector-174" data-name="Vector" d="M0,44.626S25.092,41.664,16.454,0c0,0,12.4,12.384,20.11,19.268S58.021,35.641,58.021,35.641,49.812,44,0,44.626Z" transform="translate(124.562 162.967)" fill="#fff" opacity="0.1"/>
    <path id="Vector-175" data-name="Vector" d="M43.718,23.819c0,13.155-9.787,23.819-21.859,23.819S0,36.974,0,23.819,9.787,0,21.859,0,43.718,10.664,43.718,23.819Z" transform="translate(35.668 182.235)" fill="#ffd037"/>
    <path id="Vector-176" data-name="Vector" d="M23.846,12.992c0,7.175-5.338,12.992-11.923,12.992S0,20.168,0,12.992,5.338,0,11.923,0,23.846,5.817,23.846,12.992Z" transform="translate(45.604 193.062)" fill="#dce0ed"/>
    <path id="Vector-177" data-name="Vector" d="M14.308,7.8c0,4.305-3.2,7.8-7.154,7.8S0,12.1,0,7.8,3.2,0,7.154,0,14.308,3.49,14.308,7.8Z" transform="translate(50.373 198.258)" fill="#ffd037"/>
    <path id="Vector-178" data-name="Vector" d="M50.077,27.852C50.077,12.47,38.867,0,25.039,0S0,12.47,0,27.852c0,.649.022,1.292.061,1.93H50.016C50.056,29.144,50.077,28.5,50.077,27.852Z" transform="translate(31.959 171.049)" opacity="0.1"/>
    <path id="Vector-179" data-name="Vector" d="M48.222,26.82C48.222,12.008,37.427,0,24.111,0S0,12.008,0,26.82c0,.625.021,1.245.059,1.859H48.164C48.2,28.065,48.222,27.445,48.222,26.82Z" transform="translate(32.886 171.6)" fill="#6c63ff"/>
    <path id="Vector-180" data-name="Vector" d="M48.222,26.819c0,.43-.011.857-.029,1.282-.008.193-.019.384-.029.577H.058c-.011-.193-.021-.384-.029-.577C.011,27.676,0,27.249,0,26.819,0,12.008,10.794,0,24.111,0S48.222,12.008,48.222,26.819Z" transform="translate(32.886 171.601)" fill="#fff" opacity="0.1"/>
    <path id="Vector-181" data-name="Vector" d="M48.164,0c-.008.193-.019.384-.029.577H.029C.019.384.008.193,0,0Z" transform="translate(32.915 199.702)" opacity="0.1"/>
    <path id="Vector-182" data-name="Vector" d="M146,150.741c1.819,4.382,2,8.573.4,9.359s-4.366-2.128-6.184-6.51-2-8.573-.4-9.359S144.178,146.359,146,150.741Z" opacity="0.1"/>
    <path id="Vector-183" data-name="Vector" d="M146.262,150.453c1.819,4.382,2,8.572.4,9.359s-4.366-2.128-6.184-6.51-2-8.572-.4-9.359S144.443,146.07,146.262,150.453Z" fill="#dce0ed"/>
    <path id="Vector-184" data-name="Vector" d="M11.613,0V4.524H3.532a12.805,12.805,0,0,1-2.247-.2C.517,2.2,0,.959,0,.959L7.114.372Z" transform="translate(124.209 133.3)" opacity="0.1"/>
    <path id="Vector-185" data-name="Vector" d="M20.932,27.046H12.85A12.887,12.887,0,0,1,0,14.123v-1.2A12.887,12.887,0,0,1,12.85,0l8.081.8Z" transform="translate(114.891 110.2)" fill="#6c63ff"/>
    <path id="Vector-186" data-name="Vector" d="M8.677.289S13.513,3.1,10.731,7.867c0,0-3.411,6.1-8.777,5.522L0,.289S6.425-.361,8.677.289Z" transform="translate(113.831 117.563)" fill="#6c63ff"/>
    <path id="Vector-187" data-name="Vector" d="M6.821.017a4.816,4.816,0,0,1,2.2.643,5.291,5.291,0,0,1,1.728,1.614,4.948,4.948,0,0,1-.017,5.576s-3.411,6.1-8.777,5.522L0,.272A54.892,54.892,0,0,1,6.821.017Z" transform="translate(113.831 117.58)" opacity="0.1"/>
    <path id="Vector-188" data-name="Vector" d="M0,0A6.031,6.031,0,0,1,2.484.538,6.485,6.485,0,0,1,4.59,2.072,7.146,7.146,0,0,1,6,4.367a7.627,7.627,0,0,1,.494,2.707v12.1a7.408,7.408,0,0,1-1.9,5A6.233,6.233,0,0,1,0,26.247H0V0Z" transform="translate(135.558 111)" opacity="0.1"/>
    <path id="Vector-189" data-name="Vector" d="M0,0A6.233,6.233,0,0,1,4.59,2.072a7.408,7.408,0,0,1,1.9,5v12.1a7.408,7.408,0,0,1-1.9,5A6.233,6.233,0,0,1,0,26.247Z" transform="translate(135.822 111)" fill="#dce0ed"/>
    <path id="Vector-190" data-name="Vector" d="M10.738,7.117c0,3.931-2.4,7.117-5.369,7.117S0,11.048,0,7.117,2.4,0,5.369,0,10.738,3.186,10.738,7.117Z" transform="translate(107.903 117.547)" fill="#6c63ff"/>
    <path id="Vector-191" data-name="Vector" d="M0,0,2.346,5.692,6.266,0" transform="translate(56.098 157.566)" fill="none" stroke="#000" stroke-width="1"/>
    <path id="Vector-192" data-name="Vector" d="M0,0H2.846V47.855H0Z" transform="translate(20.739 109.345)" fill="#dce0ed"/>
    <path id="Vector-193" data-name="Vector" d="M20.739,0S10.166.443,8.133,1.329,0,1.772,0,1.772V14.179s6.913-1.772,10.573-.443,11.386-1.772,11.386-1.772Z" transform="translate(0 109.345)" fill="#dce0ed"/>
  </g>
</svg>
