<svg id="Layer_1" data-name="Layer 1" xmlns="http://www.w3.org/2000/svg" viewBox="0 0 40 27.27"><path d="M32.7,20.3a3.69,3.69,0,0,0-2.6,1.08A3.64,3.64,0,0,0,29,24a3.6,3.6,0,0,0,1.1,2.59,3.66,3.66,0,1,0,2.6-6.26Zm0,5.71a2,2,0,1,1,0-4.08,2,2,0,0,1,0,4.08Zm.95-17.92a.86.86,0,0,0-.55-.21H28.92a.82.82,0,0,0-.81.82v6.68a.81.81,0,0,0,.81.81h6.63a.82.82,0,0,0,.82-.81V10.9a.84.84,0,0,0-.27-.6Zm1.09,6.47h-5V9.5h3l2,1.76ZM12.81,20.3a3.69,3.69,0,0,0-2.6,1.08A3.64,3.64,0,0,0,9.11,24a3.6,3.6,0,0,0,1.1,2.59,3.66,3.66,0,1,0,2.6-6.26Zm0,5.71a2,2,0,1,1,0-4.08,2,2,0,0,1,0,4.08Zm-5.43-4.7H5.74V19.14a.81.81,0,0,0-.81-.81.82.82,0,0,0-.82.81v3a.82.82,0,0,0,.82.82H7.38a.82.82,0,0,0,.81-.82A.81.81,0,0,0,7.38,21.31Zm4.13-4.44a.82.82,0,0,0-.82-.82H.81a.82.82,0,0,0-.81.82.81.81,0,0,0,.81.81h9.88A.82.82,0,0,0,11.51,16.87Zm-9-2.94,9.88.05a.82.82,0,1,0,0-1.63l-9.88,0h0a.82.82,0,1,0,0,1.63Zm1.66-3.7H14A.82.82,0,0,0,14,8.6H4.13a.82.82,0,0,0,0,1.63ZM39.7,9.13,33.87,4.3a.83.83,0,0,0-.52-.19H26.49V1.18a.82.82,0,0,0-.82-.81H4.93a.82.82,0,0,0-.82.81v6A.82.82,0,0,0,4.93,8a.82.82,0,0,0,.81-.82V2H24.87V21.31H18.19a.82.82,0,0,0-.82.81.82.82,0,0,0,.82.82h9.94a.82.82,0,0,0,.82-.82.82.82,0,0,0-.82-.81H26.5V5.74h6.56l5.31,4.4-.06,11.15h-.84a.82.82,0,1,0,0,1.63h1.65a.81.81,0,0,0,.81-.81L40,9.76A.84.84,0,0,0,39.7,9.13Z" transform="translate(0 -0.37)"/></svg>