<svg width="26" height="26" viewBox="0 0 26 26" fill="none" xmlns="http://www.w3.org/2000/svg">
<path d="M8.60504 19.3403C7.26112 19.3403 6.16774 20.4337 6.16774 21.7776C6.16774 23.1217 7.26112 24.2151 8.60504 24.2151C9.94896 24.2151 11.0423 23.1217 11.0423 21.7776C11.0423 20.4337 9.94896 19.3403 8.60504 19.3403ZM8.60504 22.6917C8.101 22.6917 7.69098 22.2817 7.69098 21.7776C7.69098 21.2738 8.101 20.8638 8.60504 20.8638C9.10889 20.8638 9.5191 21.2738 9.5191 21.7776C9.5191 22.2817 9.10909 22.6917 8.60504 22.6917Z" fill="#E16161"/>
<path d="M4.17001 22.9531C3.32994 22.9531 2.64658 23.6365 2.64658 24.4766C2.64658 25.3166 3.32994 26 4.17001 26C5.00989 26 5.69345 25.3166 5.69345 24.4766C5.69345 23.6365 5.00989 22.9531 4.17001 22.9531Z" fill="#E16161"/>
<path d="M7.6275 11.8992H6.18936L7.63564 10.0063C7.76556 9.83546 7.83876 9.64047 7.83876 9.46175C7.83876 9.17749 7.6519 9.04736 7.44878 9.04736H5.01941C4.80002 9.04736 4.66196 9.28302 4.66196 9.55121C4.66196 9.83546 4.82442 10.0632 5.01941 10.0632H6.26256L4.82442 11.9562C4.71869 12.0944 4.60503 12.2732 4.60503 12.4763C4.60503 12.6794 4.71056 12.9151 5.01941 12.9151H7.6275C7.84689 12.9151 7.98495 12.6794 7.98495 12.4112C7.98495 12.1268 7.82249 11.8992 7.6275 11.8992Z" fill="#E16161"/>
<path d="M12.7159 8.89037H11.1879L12.7245 6.87915C12.8627 6.69785 12.9403 6.49055 12.9403 6.30072C12.9403 5.99861 12.7417 5.86035 12.5259 5.86035H9.94479C9.71172 5.86035 9.56512 6.11069 9.56512 6.39554C9.56512 6.69765 9.7377 6.93945 9.94479 6.93945H11.2657L9.7377 8.95087C9.62543 9.09766 9.50462 9.28749 9.50462 9.50331C9.50462 9.71913 9.6169 9.96947 9.94479 9.96947H12.7159C12.949 9.96947 13.0958 9.71913 13.0958 9.43428C13.0958 9.13217 12.923 8.89037 12.7159 8.89037Z" fill="#E16161"/>
<path d="M18.8246 11.8254H16.4765L18.9109 7.51773C19.0059 7.34515 19.0576 7.18111 19.0576 7.04285C19.0576 6.83575 18.9281 6.68896 18.6691 6.68896H15.3369C15.0521 6.68896 14.9313 6.99107 14.9313 7.27592C14.9313 7.58676 15.0781 7.86308 15.3369 7.86308H17.3396L14.9053 12.1708C14.8103 12.3348 14.7585 12.5074 14.7585 12.6456C14.7585 12.8527 14.8708 12.9995 15.1471 12.9995H18.8246C19.0834 12.9995 19.2302 12.6887 19.2302 12.4126C19.2302 12.1362 19.0834 11.8254 18.8246 11.8254Z" fill="#E16161"/>
<path d="M24.7079 8.21625C24.0209 7.4704 23.1297 6.96239 22.1527 6.75053C21.8344 4.97319 20.9354 3.3472 19.5831 2.1223C18.0724 0.753784 16.1167 0 14.0767 0C10.7938 0 7.85027 1.9523 6.55515 4.92162C6.29588 4.88631 6.03365 4.86865 5.77061 4.86865C2.58865 4.86865 0 7.45731 0 10.6393C0 13.8212 2.58865 16.4101 5.77061 16.4101H7.9548C8.65324 17.6278 9.94757 18.3904 11.3804 18.3904C12.8129 18.3904 14.1075 17.6278 14.8059 16.4101H21.1131C23.8071 16.4101 25.9988 14.2182 25.9988 11.5242C25.9988 10.2947 25.5404 9.12 24.7079 8.21625ZM21.1131 14.8866H14.3322C14.0234 14.8866 13.7449 15.0733 13.6276 15.3591C13.2519 16.2752 12.3698 16.8669 11.3804 16.8669C10.3911 16.8669 9.50899 16.2752 9.13309 15.3591C9.01585 15.0733 8.73755 14.8866 8.4285 14.8866H5.77081C3.42873 14.8866 1.52344 12.9814 1.52344 10.6393C1.52344 8.29738 3.42873 6.39209 5.77081 6.39209C6.13382 6.39209 6.49425 6.43791 6.84238 6.52837C7.2278 6.62854 7.62532 6.4149 7.75446 6.03801C8.67963 3.33768 11.2205 1.52344 14.0767 1.52344C15.738 1.52344 17.3303 2.13718 18.5603 3.25139C19.7821 4.35786 20.5493 5.86563 20.7209 7.49698C20.759 7.85939 21.0486 8.14404 21.4118 8.17598C22.2454 8.24918 23.018 8.63004 23.5873 9.24834C24.16 9.87001 24.4754 10.6783 24.4754 11.5242C24.4754 13.3783 22.967 14.8866 21.1131 14.8866Z" fill="#E16161"/>
</svg>
