<svg xmlns="http://www.w3.org/2000/svg" width="214.1" height="226.562" viewBox="0 0 214.1 226.562">
  <g id="undraw_completed_ngx6_1" data-name="undraw_completed_ngx6 1" transform="translate(10.1 0.001)">
    <path id="Vector" d="M187.92,94.089A93.96,93.96,0,1,1,93.96,0,94.025,94.025,0,0,1,187.92,94.089Z" transform="translate(16.08 31.821)" fill="#f2f2f2"/>
    <path id="Vector-2" data-name="Vector" d="M8.611,10.152a7.6,7.6,0,0,0,1-3.851c0-3.48-2.152-6.3-4.807-6.3S0,2.821,0,6.3a7.6,7.6,0,0,0,1,3.851,7.892,7.892,0,0,0,0,7.7,7.892,7.892,0,0,0,0,7.7,7.892,7.892,0,0,0,0,7.7,7.6,7.6,0,0,0-1,3.851c0,3.48,2.152,6.3,4.807,6.3s4.807-2.821,4.807-6.3a7.6,7.6,0,0,0-1-3.851,7.892,7.892,0,0,0,0-7.7,7.892,7.892,0,0,0,0-7.7,7.892,7.892,0,0,0,0-7.7Z" transform="translate(46.561 99.12)" fill="#3f3d56"/>
    <path id="Vector-3" data-name="Vector" d="M9.614,6.3c0,3.48-2.152,6.3-4.807,6.3S0,9.782,0,6.3,2.152,0,4.807,0,9.614,2.821,9.614,6.3Z" transform="translate(46.561 91.419)" fill="#3f3d56"/>
    <path id="Vector-4" data-name="Vector" d="M9.614,6.3c0,3.48-2.152,6.3-4.807,6.3S0,9.782,0,6.3,2.152,0,4.807,0,9.614,2.821,9.614,6.3Z" transform="translate(46.561 83.717)" fill="#3f3d56"/>
    <path id="Vector-5" data-name="Vector" d="M41.123,37.314a23.11,23.11,0,0,0,1.79-2.639L30.283,32.6l13.66.1a23.127,23.127,0,0,0,.44-18.269l-18.327,9.52,16.9-12.441a23.035,23.035,0,1,0-38.03,25.8,23.075,23.075,0,0,0-2.626,4.2l16.4,8.53L1.215,44.173A23.1,23.1,0,0,0,4.928,65.826a23.023,23.023,0,1,0,36.2,0,23.085,23.085,0,0,0,0-28.511Z" transform="translate(28.24 -0.001)" fill="#02aaf1"/>
    <path id="Vector-6" data-name="Vector" d="M0,.34A22.978,22.978,0,0,0,4.928,14.6a23.023,23.023,0,1,0,36.2,0C44.209,10.672,0-2.248,0,.34Z" transform="translate(28.24 51.229)" opacity="0.1"/>
    <path id="Vector-7" data-name="Vector" d="M177.739,63.027C171.78,84.288,125.8,104.008,76.914,90.269S-5.269,34.534.689,13.273s48.911-13.738,97.8,0S183.7,41.766,177.739,63.027Z" transform="translate(0 125.036)" fill="#3f3d56"/>
    <path id="Vector-8" data-name="Vector" d="M177.739,63.027C171.78,84.288,125.8,104.008,76.914,90.269S-5.269,34.534.689,13.273s48.911-13.738,97.8,0S183.7,41.766,177.739,63.027Z" transform="translate(0 125.036)" opacity="0.1"/>
    <path id="Vector-9" data-name="Vector" d="M79.961,91.954c0,50.785-17.9,91.954-39.98,91.954S0,142.739,0,91.954,17.9,0,39.98,0,79.961,41.169,79.961,91.954Z" transform="matrix(0.27, -0.963, 0.963, 0.271, -10.1, 176.807)" fill="#3f3d56"/>
    <path id="Vector-10" data-name="Vector" d="M53.907,7.82c0,4.319-12.068,7.82-26.954,7.82S0,12.138,0,7.82,12.068,0,26.954,0,53.907,3.5,53.907,7.82Z" transform="translate(47.316 156.685)" opacity="0.1"/>
    <path id="Vector-11" data-name="Vector" d="M57.064,1.655,22.973,35.792,8.645,21.444a4.893,4.893,0,0,0-6.927,0L1.2,20.673c-1.913,1.915-1.4,5.792.515,7.707L20.309,47a3.734,3.734,0,0,0,5.284,0L63.987,8.591c1.914-1.915,2.608-5.426.7-7.341S58.976-.26,57.064,1.655Z" transform="translate(50.396 117.85)" fill="#57b894"/>
    <path id="Vector-12" data-name="Vector" d="M57.064,1.655,22.973,35.792,8.645,21.444a4.893,4.893,0,0,0-6.927,0L1.2,20.673c-1.913,1.915-1.4,5.792.515,7.707L20.309,47a3.734,3.734,0,0,0,5.284,0L63.987,8.591c1.914-1.915,2.608-5.426.7-7.341S58.976-.26,57.064,1.655Z" transform="translate(50.396 117.85)" opacity="0.1"/>
    <path id="Vector-13" data-name="Vector" d="M56.781,1.436,22.69,35.574,8.361,21.226a4.893,4.893,0,0,0-6.927,0h0a4.909,4.909,0,0,0,0,6.936L20.026,46.779a3.734,3.734,0,0,0,5.284,0L63.7,8.373a4.908,4.908,0,0,0,0-6.937h0a4.892,4.892,0,0,0-6.925,0Z" transform="translate(50.679 116.555)" fill="#57b894"/>
    <path id="Vector-14" data-name="Vector" d="M12.191,0A11.055,11.055,0,0,0,7.618,2.748S4.874,3.969,3.2,3.664-1.528,6.411.911,7.327s17.378,3.358,17.683,2.6.3-8.548.3-8.548Z" transform="translate(111.869 176.102)" fill="#02aaf1"/>
    <path id="Vector-15" data-name="Vector" d="M10.965,0A11.062,11.062,0,0,0,6.927,3.489s-2.5,1.673-4.2,1.659-4.187,3.516-1.628,4,17.7.337,17.866-.468S17.808.206,17.808.206Z" transform="translate(137.044 174.791)" fill="#02aaf1"/>
    <path id="Vector-16" data-name="Vector" d="M13.719,6.869A6.86,6.86,0,1,1,6.86,0,6.864,6.864,0,0,1,13.719,6.869Z" transform="translate(122.155 57.571)" fill="#ffb9b9"/>
    <path id="Vector-17" data-name="Vector" d="M7.109,0s.762,5.19,2.134,5.8a10.128,10.128,0,0,1,2.591,1.832L8.024,9.464.554,9.006S1.164,5.648.1,3.969,7.109,0,7.109,0Z" transform="translate(127.469 65.585)" fill="#ffb9b9"/>
    <path id="Vector-18" data-name="Vector" d="M6.1,0S9.6,9.006,6.1,17.707s-5.03,10.075-5.03,10.075L0,16.333l1.227-1.115s.743-3.473.139-5.53.311-8.468.311-8.468Z" transform="translate(142.658 90.162)" fill="#ffb9b9"/>
    <path id="Vector-19" data-name="Vector" d="M4,5.648S-.424,15.723.033,20.607,4,46.1,4,46.1,3.539,72.66,4.911,72.66s7.927,2.442,7.927.763S14.21,31.445,14.21,31.445s7.774,17.707,8.537,19.081,5.64,22.9,7.317,22.9,6.86-1.526,6.4-2.6-5.64-24.882-8.537-30.987-2.287-29.156-2.287-29.156L20.765,0Z" transform="translate(118.539 104.053)" fill="#2f2e41"/>
    <path id="Vector-20" data-name="Vector" d="M5.266,7.152S1,6.847.693,5.778-.222,3.794.083,3.794.54,3.031.54,3.031s.3-.153.457,0,.3-1.069.3-1.069.152-.458.3-.153.152.153.3-.305.915-.763.915-.763,2.9.153,3.354-.458,5.64-.153,6.707.611,5.793,3.511,5.03,5.8-3.506,7.327-3.506,8.09-1.067.611-1.372-.153S10.3,12.953,10.3,12.495,8.924,7.763,8.162,8.068s-1.677,2.748-1.982,2.29A21.836,21.836,0,0,1,5.266,7.152Z" transform="translate(121.691 54.159)" fill="#3f3d56"/>
    <path id="Vector-21" data-name="Vector" d="M27.3,11.3s-6.25-9.159-8.079-9.617S13.278,0,13.278,0A29.95,29.95,0,0,0,7.943,1.221C6.724,1.832,2.15,2.9,2,4.732s1.22,19.386.457,21.065S-.9,43.5.321,43.2s.3-4.274,5.64-4.427,8.232-3.358,10.213.458S23.8,45.947,23.8,45.947a36.978,36.978,0,0,1,.61-3.664c.457-2.137-1.219-7.327-1.219-7.327s.152-12.059.762-13.433S27.3,11.3,27.3,11.3Z" transform="translate(120.69 70.928)" fill="#02aaf1"/>
    <path id="Vector-22" data-name="Vector" d="M2.591,0,4.878.305s-.152,3.053.457,3.969,1.677,5.648,1.067,5.8S.3,11.143.3,11.143L0,4.121Z" transform="translate(143.115 81.919)" fill="#02aaf1"/>
    <path id="Vector-23" data-name="Vector" d="M10.914,0S9.39,9.922,8.628,11.143,4.054,29.461,4.054,29.461-2.212,38.188.836,38.035,7.1,30.072,7.1,30.072s9.451-17.249,9.451-19.081S18.841,0,18.841,0Z" transform="translate(110.097 87.414)" fill="#ffb9b9"/>
    <path id="Vector-24" data-name="Vector" d="M5.6,0,2.852,1.069S-.654,13.586.108,14.654s9.908-.458,10.061-.916S8.492,0,5.6,0Z" transform="translate(119.836 73.981)" fill="#02aaf1"/>
    <path id="Vector-25" data-name="Vector" d="M0,0C0,10.637,6.664,19.245,14.9,19.245" transform="translate(2.87 106.145)" fill="#3f3d56"/>
    <path id="Vector-26" data-name="Vector" d="M0,19.461C0,8.7,7.437,0,16.627,0" transform="translate(17.77 105.929)" fill="#02aaf1"/>
    <path id="Vector-27" data-name="Vector" d="M0,0C0,10.1,4.25,18.281,9.5,18.281" transform="translate(8.268 107.109)" fill="#02aaf1"/>
    <path id="Vector-28" data-name="Vector" d="M0,24.867C0,11.122,8.6,0,19.219,0" transform="translate(17.77 100.523)" fill="#3f3d56"/>
    <path id="Vector-29" data-name="Vector" d="M0,1.143A7.736,7.736,0,0,0,2.75.624C3.387.17,6-.372,6.158.356S9.334,3.978,6.948,4,1.405,3.625.769,3.238,0,1.143,0,1.143Z" transform="translate(14.635 124.383)" fill="#a8a8a8"/>
    <path id="Vector-30" data-name="Vector" d="M6.991,2.6c-2.386.019-5.543-.372-6.179-.76C.328,1.548.135.489.071,0L0,0S.134,1.709.769,2.1s3.793.779,6.179.76c.689-.006.926-.251.913-.614C7.766,2.462,7.5,2.6,6.991,2.6Z" transform="translate(14.635 125.523)" opacity="0.2"/>
  </g>
</svg>
