<svg width="26" height="26" viewBox="0 0 26 26" fill="none" xmlns="http://www.w3.org/2000/svg">
<g clip-path="url(#clip0)">
<path d="M25.7229 10.5658L13.3985 1.5421C13.1609 1.36813 12.838 1.36813 12.6005 1.5421L0.275953 10.5658C-0.0250778 10.7862 -0.0904841 11.2089 0.129957 11.51C0.350399 11.811 0.773153 11.8763 1.07413 11.656L12.9994 2.92442L24.9248 11.6559C25.045 11.744 25.1848 11.7864 25.3233 11.7864C25.5313 11.7864 25.7366 11.6907 25.8689 11.5099C26.0894 11.2089 26.024 10.7862 25.7229 10.5658Z" fill="#02AAF1"/>
<path d="M22.4578 11.8091C22.0847 11.8091 21.7822 12.1115 21.7822 12.4846V23.2375H16.378V17.3679C16.378 15.5052 14.8626 13.9899 13 13.9899C11.1375 13.9899 9.62206 15.5053 9.62206 17.3679V23.2376H4.21777V12.4847C4.21777 12.1116 3.91527 11.8091 3.54223 11.8091C3.16919 11.8091 2.86668 12.1116 2.86668 12.4847V23.9131C2.86668 24.2862 3.16919 24.5887 3.54223 24.5887H10.2976C10.6529 24.5887 10.9436 24.3142 10.9705 23.9658C10.9721 23.95 10.9731 23.9327 10.9731 23.9131V17.368C10.9731 16.2503 11.8824 15.3411 13 15.3411C14.1177 15.3411 15.0269 16.2504 15.0269 17.368V23.9131C15.0269 23.9326 15.0279 23.9496 15.0296 23.9651C15.0562 24.3139 15.347 24.5887 15.7025 24.5887H22.4578C22.8309 24.5887 23.1334 24.2862 23.1334 23.9131V12.4847C23.1333 12.1115 22.8309 11.8091 22.4578 11.8091Z" fill="#02AAF1"/>
</g>
<defs>
<clipPath id="clip0">
<rect width="26" height="26" fill="white"/>
</clipPath>
</defs>
</svg>
