<svg width="26" height="26" viewBox="0 0 26 26" fill="none" xmlns="http://www.w3.org/2000/svg">
<path d="M20.5482 16.1061C20.0159 15.5519 19.3739 15.2555 18.6934 15.2555C18.0185 15.2555 17.371 15.5464 16.8167 16.1006L15.0827 17.8292C14.94 17.7523 14.7973 17.681 14.6601 17.6097C14.4626 17.5109 14.276 17.4176 14.1169 17.3188C12.4926 16.2872 11.0165 14.9427 9.60069 13.2032C8.91475 12.3362 8.4538 11.6064 8.11907 10.8655C8.56904 10.454 8.98609 10.026 9.39216 9.6144C9.54581 9.46075 9.69946 9.30161 9.85311 9.14796C11.0055 7.99559 11.0055 6.503 9.85311 5.35063L8.35503 3.85255C8.18492 3.68244 8.00932 3.50684 7.84469 3.33124C7.51545 2.99101 7.16973 2.63981 6.81305 2.31057C6.28076 1.78377 5.64422 1.50391 4.97474 1.50391C4.30527 1.50391 3.65775 1.78377 3.109 2.31057C3.10351 2.31605 3.10351 2.31605 3.09803 2.32154L1.23228 4.20375C0.529887 4.90614 0.129301 5.76219 0.0415011 6.75542C-0.0901984 8.35777 0.381725 9.85036 0.743898 10.8271C1.63287 13.2252 2.96084 15.4476 4.94182 17.8292C7.34533 20.6991 10.2372 22.9654 13.5407 24.5623C14.8028 25.1604 16.4875 25.8683 18.3697 25.989C18.4849 25.9945 18.6056 26 18.7154 26C19.983 26 21.0476 25.5445 21.8817 24.6391C21.8872 24.6281 21.8981 24.6227 21.9036 24.6117C22.189 24.266 22.5182 23.9532 22.8639 23.6184C23.0999 23.3935 23.3413 23.1575 23.5773 22.9106C24.1206 22.3453 24.4059 21.6869 24.4059 21.0119C24.4059 20.3314 24.1151 19.6784 23.5608 19.1297L20.5482 16.1061ZM22.5127 21.8844C22.5072 21.8844 22.5072 21.8899 22.5127 21.8844C22.2987 22.1149 22.0792 22.3234 21.8433 22.5539C21.4866 22.8941 21.1244 23.2508 20.7842 23.6514C20.2299 24.244 19.5769 24.5239 18.7209 24.5239C18.6386 24.5239 18.5508 24.5239 18.4685 24.5184C16.8387 24.4141 15.3241 23.7776 14.1882 23.2343C11.0823 21.7308 8.35503 19.5961 6.0887 16.8908C4.21747 14.6354 2.96633 12.5502 2.13772 10.3113C1.62738 8.94493 1.44081 7.88036 1.52312 6.87615C1.57799 6.23411 1.82493 5.70183 2.28039 5.24637L4.15162 3.37514C4.42051 3.12271 4.70586 2.98553 4.98572 2.98553C5.33143 2.98553 5.61129 3.19405 5.78689 3.36965C5.79238 3.37514 5.79787 3.38062 5.80335 3.38611C6.13809 3.6989 6.45636 4.02266 6.7911 4.36837C6.96121 4.54397 7.13681 4.71957 7.31241 4.90066L8.81049 6.39874C9.39216 6.98041 9.39216 7.51818 8.81049 8.09986C8.65135 8.25899 8.4977 8.41813 8.33857 8.57178C7.87762 9.0437 7.43862 9.4827 6.96121 9.91072C6.95024 9.9217 6.93926 9.92719 6.93377 9.93816C6.46185 10.4101 6.54965 10.871 6.64842 11.1838C6.65391 11.2003 6.6594 11.2167 6.66489 11.2332C7.0545 12.1771 7.60325 13.066 8.43734 14.1251L8.44283 14.1306C9.95737 15.9963 11.5542 17.4505 13.3157 18.5645C13.5407 18.7071 13.7712 18.8224 13.9907 18.9321C14.1882 19.0309 14.3748 19.1242 14.5339 19.223C14.5559 19.2339 14.5778 19.2504 14.5998 19.2614C14.7864 19.3547 14.962 19.3986 15.143 19.3986C15.5985 19.3986 15.8839 19.1132 15.9771 19.0199L17.8539 17.1432C18.0404 16.9566 18.3368 16.7317 18.6825 16.7317C19.0227 16.7317 19.3025 16.9457 19.4727 17.1322C19.4781 17.1377 19.4781 17.1377 19.4836 17.1432L22.5072 20.1668C23.0724 20.7265 23.0724 21.3027 22.5127 21.8844Z" fill="#1E1E1E"/>
<path d="M14.051 6.18443C15.4887 6.42588 16.7947 7.10633 17.8374 8.14895C18.88 9.19157 19.555 10.4976 19.8019 11.9353C19.8623 12.2975 20.175 12.5499 20.5317 12.5499C20.5756 12.5499 20.614 12.5444 20.6579 12.5389C21.064 12.4731 21.3329 12.089 21.2671 11.6829C20.9707 9.94335 20.1476 8.35747 18.891 7.10084C17.6343 5.84421 16.0485 5.02109 14.3089 4.72476C13.9028 4.65891 13.5242 4.9278 13.4529 5.32838C13.3815 5.72897 13.6449 6.11858 14.051 6.18443Z" fill="#1E1E1E"/>
<path d="M25.9698 11.4691C25.4815 8.60468 24.1315 5.99813 22.0573 3.92387C19.983 1.8496 17.3765 0.49968 14.512 0.011294C14.1114 -0.0600432 13.7328 0.214331 13.6614 0.614917C13.5956 1.02099 13.8645 1.39963 14.2705 1.47096C16.8277 1.90447 19.1599 3.11721 21.0147 4.96649C22.8694 6.82125 24.0767 9.15343 24.5102 11.7106C24.5705 12.0728 24.8833 12.3252 25.24 12.3252C25.2839 12.3252 25.3223 12.3197 25.3662 12.3142C25.7668 12.2539 26.0412 11.8697 25.9698 11.4691Z" fill="#1E1E1E"/>
</svg>
