<svg width="26" height="26" viewBox="0 0 26 26" fill="none" xmlns="http://www.w3.org/2000/svg">
<path d="M24.1636 5.61614H21.2673V2.81318C21.2673 2.08985 20.679 1.50146 19.9556 1.50146H6.04436C5.32103 1.50146 4.73265 2.08985 4.73265 2.81318V5.61614H1.8364C0.823859 5.61614 0 6.44 0 7.45254V22.6622C0 23.6747 0.823859 24.4986 1.8364 24.4986H24.1636C25.1761 24.4986 26 23.6747 26 22.6622V7.45254C26 6.4399 25.1761 5.61614 24.1636 5.61614ZM6.30671 3.07552H19.6934V5.61614H6.30671V3.07552ZM1.8364 7.1902H24.1636C24.3058 7.1902 24.4259 7.31035 24.4259 7.45254V12.1725H16.4695V11.4673C16.4695 10.744 15.8811 10.1556 15.1578 10.1556H10.8422C10.1189 10.1556 9.53047 10.744 9.53047 11.4673V12.1725H1.57405V7.45254C1.57405 7.31025 1.69421 7.1902 1.8364 7.1902ZM14.8955 11.7298V14.2704H11.1045V11.7298H14.8955ZM24.1636 22.9245H1.8364C1.69421 22.9245 1.57405 22.8045 1.57405 22.6622V13.7465H9.53047V14.5326C9.53047 15.256 10.1189 15.8443 10.8422 15.8443H15.1578C15.8811 15.8443 16.4695 15.256 16.4695 14.5326V13.7465H24.4259V22.6622C24.4259 22.8045 24.3058 22.9245 24.1636 22.9245Z" fill="#1E1E1E"/>
</svg>
