<svg width="40" height="40" viewBox="0 0 40 40" fill="none" xmlns="http://www.w3.org/2000/svg">
<g clip-path="url(#clip0)">
<path d="M24.8522 29.4177C26.0216 29.4177 27.191 28.9726 28.0813 28.0823C29.8617 26.3019 29.8617 23.4049 28.0813 21.6245C26.3008 19.844 23.4038 19.844 21.6233 21.6245C19.8429 23.4049 19.8429 26.3019 21.6233 28.0823C22.5135 28.9725 23.6829 29.4177 24.8522 29.4177ZM22.4516 22.4527C23.1135 21.7907 23.9827 21.4598 24.8522 21.4598C25.7216 21.4598 26.5912 21.7909 27.2529 22.4527C28.5766 23.7764 28.5766 25.9303 27.2529 27.254C25.9292 28.5778 23.7752 28.5778 22.4516 27.254C21.1277 25.9303 21.1277 23.7764 22.4516 22.4527Z" fill="black"/>
<path d="M19.5363 19.5376C17.3574 21.7167 16.7274 24.9574 17.9315 27.7936C18.0578 28.0914 18.4019 28.2301 18.6994 28.1039C18.9971 27.9774 19.136 27.6337 19.0096 27.3359C17.9931 24.9414 18.5251 22.2055 20.3647 20.3659C22.8391 17.8915 26.8653 17.8916 29.3396 20.3659C31.8139 22.8403 31.8139 26.8664 29.3396 29.3408C28.1508 30.5294 26.5705 31.1895 24.8897 31.1994C24.8769 31.1995 24.8643 31.1995 24.8515 31.1995C23.1863 31.1995 21.6145 30.5604 20.4222 29.3975C20.1906 29.1716 19.8199 29.1763 19.5941 29.4078C19.3683 29.6394 19.3729 30.0102 19.6045 30.2361C21.017 31.6138 22.8787 32.3708 24.8513 32.3708C24.8663 32.3708 24.8815 32.3708 24.8966 32.3706C26.8877 32.359 28.7597 31.577 30.1679 30.1689C33.0989 27.2379 33.0989 22.4687 30.1679 19.5375C27.2366 16.6066 22.4675 16.6066 19.5363 19.5376Z" fill="black"/>
<path d="M38.8773 22.2238H36.7933C36.4839 20.8116 35.9333 19.4812 35.1564 18.2678L36.6286 16.7955C36.8406 16.5836 36.9572 16.302 36.9572 16.0023C36.9572 15.7027 36.8406 15.4211 36.6287 15.2093L34.4961 13.0768C34.2843 12.8649 34.0027 12.7482 33.7031 12.7482C33.4034 12.7482 33.1218 12.8648 32.9099 13.0767L31.4376 14.5491C30.2243 13.7721 28.8939 13.2216 27.4817 12.9121V10.8281C27.4817 10.2097 26.9786 9.70654 26.3601 9.70654H23.3442C22.9958 9.70654 22.684 9.86631 22.4782 10.1164H22.0955C21.846 9.02444 21.4192 7.99321 20.8255 7.04732L21.9519 5.9209C22.3491 5.52366 22.3491 4.8774 21.9519 4.48009L20.2284 2.75652C20.0359 2.56411 19.7801 2.45814 19.5079 2.45814C19.2358 2.45814 18.9799 2.56411 18.7875 2.7566L17.661 3.88295C16.7154 3.28932 15.6841 2.86256 14.592 2.61299V1.01882C14.5921 0.457051 14.1351 0 13.5733 0H11.1358C10.5741 0 10.117 0.457051 10.117 1.01882V2.61307C9.02502 2.86264 7.99363 3.28947 7.04798 3.88302L5.92171 2.75668C5.7293 2.56419 5.47348 2.45822 5.20126 2.45822C4.92905 2.45822 4.67315 2.56419 4.48074 2.75668L2.75733 4.48017C2.36017 4.8774 2.36017 5.52366 2.75733 5.92097L3.88376 7.0474C3.29013 7.99305 2.86337 9.02444 2.6138 10.1164H1.01955C0.457784 10.1164 0.000732422 10.5735 0.000732422 11.1352V13.5727C0.000732422 14.1345 0.457784 14.5915 1.01955 14.5915H2.6138C2.86337 15.6836 3.29013 16.715 3.88376 17.6605L2.75733 18.787C2.3601 19.1842 2.3601 19.8305 2.75733 20.2278L4.48082 21.9514C4.87806 22.3485 5.52431 22.3487 5.92171 21.9514L7.04813 20.8249C7.9937 21.4186 9.02494 21.8453 10.1171 22.0949V22.4781C9.86603 22.684 9.70548 22.9963 9.70548 23.3455V26.3615C9.70548 26.9799 10.2086 27.4831 10.8271 27.4831H12.911C13.2206 28.8953 13.7712 30.2258 14.548 31.439L13.0757 32.9114C12.8638 33.1232 12.7471 33.4049 12.7471 33.7045C12.7471 34.0041 12.8638 34.2858 13.0756 34.4976L15.2082 36.6301C15.4201 36.8419 15.7017 36.9587 16.0013 36.9587C16.3009 36.9587 16.5825 36.842 16.7944 36.6302L18.2667 35.1577C19.48 35.9347 20.8106 36.4853 22.2227 36.7947V38.8787C22.2227 39.4971 22.7258 40.0002 23.3442 40.0002H26.3601C26.9786 40.0002 27.4817 39.4971 27.4817 38.8787V36.7945C28.8939 36.485 30.2244 35.9344 31.4376 35.1575L32.91 36.6299C33.1218 36.8417 33.4034 36.9585 33.7031 36.9585C34.0027 36.9585 34.2843 36.8418 34.4961 36.6299L36.6286 34.4974C36.8406 34.2856 36.9572 34.0039 36.9572 33.7043C36.9572 33.4047 36.8406 33.123 36.6287 32.9112L35.1564 31.4388C35.9332 30.2257 36.4838 28.8951 36.7933 27.4828H38.8773C39.4957 27.4828 39.9989 26.9797 39.9989 26.3612V23.3453C39.9989 22.7269 39.4957 22.2238 38.8773 22.2238ZM10.4825 20.976C9.44506 20.7519 8.46872 20.348 7.58038 19.7752C7.17877 19.5165 6.64324 19.573 6.3066 19.9097L5.20126 21.0151L3.69338 19.5073L4.7988 18.4018C5.13543 18.065 5.19197 17.5294 4.93326 17.128C4.36049 16.2397 3.95646 15.2633 3.73234 14.2258C3.63137 13.7589 3.21259 13.42 2.73648 13.42H1.17206V11.2877H2.73656C3.21259 11.2877 3.63145 10.9488 3.7325 10.4816C3.95653 9.44432 4.36056 8.46798 4.93334 7.57965C5.19205 7.17835 5.13551 6.64267 4.79887 6.30595L3.69345 5.20053L5.20134 3.69264L6.30668 4.79806C6.64332 5.13478 7.17877 5.19132 7.58054 4.93253C8.46887 4.35975 9.44521 3.95572 10.4825 3.73169C10.9494 3.6308 11.2884 3.21193 11.2884 2.73575V1.17133H13.4208V2.73583C13.4208 3.21201 13.7598 3.63088 14.2268 3.73177C15.264 3.9558 16.2404 4.35983 17.1288 4.93253C17.5302 5.19124 18.0659 5.13486 18.4027 4.79806L19.508 3.69264L21.0159 5.20053L19.9105 6.30587C19.5737 6.64259 19.5172 7.17828 19.776 7.57965C20.3489 8.46814 20.7529 9.44456 20.9768 10.4816C21.0777 10.9487 21.4965 11.2877 21.9728 11.2877H22.2227V12.9121C20.8106 13.2215 19.4801 13.7721 18.2669 14.5491L16.7944 13.0767C16.7769 13.0592 16.7583 13.0434 16.7399 13.0273C16.9454 11.6781 16.5303 10.2519 15.4935 9.21513C14.267 7.98852 12.4241 7.5884 10.7987 8.19561C10.4957 8.30884 10.3418 8.64626 10.4551 8.94924C10.5683 9.25222 10.9057 9.40606 11.2087 9.29291C12.4053 8.8457 13.7623 9.14025 14.6653 10.0433C15.4232 10.8012 15.7285 11.8415 15.5848 12.8284C15.4455 12.8841 15.3175 12.9675 15.2083 13.0767L13.0758 15.2092C12.9663 15.3186 12.8828 15.4469 12.8271 15.5864C12.672 15.6089 12.5144 15.6216 12.3547 15.6216C11.4818 15.6216 10.6613 15.2817 10.0442 14.6645C9.01276 13.6331 8.79044 12.0258 9.50347 10.7557C9.66175 10.4736 9.56149 10.1166 9.27943 9.9583C8.99753 9.80002 8.64043 9.90028 8.48207 10.1823C7.51323 11.9082 7.81496 14.092 9.21579 15.4928C10.0812 16.3582 11.218 16.7909 12.3546 16.7909C12.5787 16.7909 12.8026 16.7732 13.0246 16.7393C13.0413 16.7583 13.0576 16.7775 13.0756 16.7955L14.548 18.2679C13.7712 19.4811 13.2205 20.8117 12.911 22.2239H11.2884V21.972C11.2884 21.4959 10.9495 21.077 10.4825 20.976ZM38.8276 26.3115H36.7529C36.2287 26.3115 35.7676 26.6848 35.6564 27.1991C35.3756 28.499 34.8694 29.7226 34.1517 30.8357C33.8667 31.2777 33.9288 31.8676 34.2994 32.2382L35.7654 33.7042L33.7031 35.7664L32.2372 34.3003C31.8667 33.9298 31.2768 33.8676 30.8348 34.1525C29.7215 34.8703 28.4979 35.3765 27.1981 35.6573C26.6838 35.7685 26.3105 36.2296 26.3105 36.7538V38.8285H23.3941V36.7538C23.3941 36.2297 23.0208 35.7685 22.5064 35.6573C21.2067 35.3766 19.9832 34.8703 18.8698 34.1525C18.428 33.8676 17.8381 33.9297 17.4673 34.3003L16.0014 35.7664L13.9392 33.7041L15.4051 32.2381C15.7758 31.8674 15.838 31.2776 15.553 30.8356C14.8353 29.7224 14.3289 28.4989 14.0481 27.199C13.9369 26.6847 13.4759 26.3113 12.9517 26.3113H10.877V23.3949H12.9517C13.4759 23.3949 13.9369 23.0216 14.0481 22.5073C14.3289 21.2074 14.8352 19.9838 15.5529 18.8707C15.838 18.4286 15.7758 17.8388 15.4052 17.4682L13.9392 16.0022L16.0014 13.9399L17.4673 15.406C17.8379 15.7766 18.4277 15.8387 18.8698 15.5539C19.9832 14.8361 21.2067 14.3298 22.5064 14.049C23.0208 13.9379 23.3941 13.4768 23.3941 12.9526V10.8778H26.3105V12.9525C26.3105 13.4767 26.6838 13.9378 27.1981 14.049C28.4979 14.3297 29.7214 14.836 30.8348 15.5538C31.2767 15.8387 31.8665 15.7767 32.2373 15.4059L33.7031 13.9399L35.7654 16.0021L34.2994 17.4684C33.9287 17.8391 33.8665 18.4289 34.1515 18.8708C34.8692 19.984 35.3756 21.2076 35.6564 22.5075C35.7676 23.0218 36.2286 23.3951 36.7528 23.3951H38.8275V26.3115H38.8276Z" fill="black"/>
</g>
<defs>
<clipPath id="clip0">
<rect width="40" height="40" fill="white"/>
</clipPath>
</defs>
</svg>
