<svg width="40" height="40" viewBox="0 0 40 40" fill="none" xmlns="http://www.w3.org/2000/svg">
<g clip-path="url(#clip0)">
<path d="M27.189 12.121C26.757 12.121 26.4062 12.4701 26.4062 12.9019C26.4062 13.3335 26.757 13.6832 27.189 13.6832C27.622 13.6832 27.9718 13.3335 27.9718 12.9019C27.9718 12.4701 27.622 12.121 27.189 12.121Z" fill="#1E1E1E"/>
<path d="M12.9664 26.3157C12.5334 26.3157 12.1836 26.6657 12.1836 27.0969C12.1836 27.529 12.5334 27.8782 12.9664 27.8782C13.3984 27.8782 13.7492 27.529 13.7492 27.0969C13.7492 26.6657 13.3984 26.3157 12.9664 26.3157Z" fill="#1E1E1E"/>
<path d="M39.1435 4.80534C38.8793 4.744 38.6016 4.82365 38.4108 5.01592L35.1657 8.28038H33.6099L31.8972 6.50945V4.93504L35.0959 1.69499C35.2852 1.50334 35.3623 1.22777 35.2996 0.96562C35.2372 0.703779 35.044 0.492598 34.7883 0.406538C33.9848 0.136152 33.1439 -0.000871926 32.2886 -0.000871926C29.7391 -0.000871926 27.4229 1.18565 25.9338 3.25444C24.54 5.19109 24.1104 7.56444 24.726 9.83586L18.96 15.5906L9.35383 5.98119V4.0952C9.35383 3.82085 9.2095 3.56633 8.97375 3.42534L3.43895 0.110517C3.13073 -0.0741142 2.73659 -0.0255912 2.4828 0.22801L0.269004 2.43718C0.0152122 2.69078 -0.0334057 3.08415 0.151281 3.39177L3.47198 8.91576C3.61324 9.15105 3.86795 9.29479 4.14284 9.29509L6.03191 9.2957L15.639 18.9051L9.89504 24.6378C7.61918 24.0238 5.23996 24.4532 3.2986 25.8451C1.22699 27.3304 0.0390625 29.6415 0.0390625 32.186C0.0390625 33.0393 0.176355 33.8788 0.44727 34.6805C0.533803 34.9372 0.747539 35.131 1.01173 35.192C1.27622 35.2534 1.55356 35.1737 1.74466 34.9814L4.98953 31.7173H6.55386L8.33621 33.4962V35.0574L5.06567 38.296C4.87303 38.4867 4.79322 38.7635 4.85468 39.0275C4.91584 39.2911 5.11 39.5045 5.36716 39.5908C6.17042 39.8612 7.0116 39.9982 7.86655 39.9982C10.4161 39.9982 12.7314 38.8123 14.2199 36.7448C15.6145 34.8072 16.0448 32.4329 15.4295 30.1615L20.0427 25.5573L21.0995 26.7029L20.6145 27.1866C20.3088 27.4918 20.3088 27.9865 20.6145 28.2917C20.9203 28.5966 21.4157 28.5966 21.7217 28.2917L22.1608 27.8535L32.0758 38.6024C32.0832 38.6103 32.0908 38.6179 32.0984 38.6256C33.9331 40.4566 36.9055 40.4572 38.7411 38.6252C40.5714 36.7976 40.5714 33.8236 38.7411 31.9959C38.7331 31.988 38.7249 31.9803 38.7166 31.9727L27.9298 22.096L28.364 21.6627C28.6698 21.3578 28.6698 20.8631 28.364 20.5579C28.0583 20.2527 27.5629 20.2527 27.2568 20.5579L26.7752 21.0389L25.6252 19.9854L30.2607 15.3589C30.9197 15.5347 31.5997 15.6238 32.2886 15.6238C36.6049 15.6238 40.1161 12.1192 40.1161 7.81163C40.1161 6.95806 39.9788 6.11882 39.7079 5.31682C39.6214 5.06017 39.4076 4.86638 39.1435 4.80534ZM6.9107 7.96269C6.76393 7.8159 6.56487 7.74114 6.35694 7.74114L4.58652 7.74053L1.80827 3.11101L3.15764 1.76427L7.78827 4.5377V6.30467C7.78827 6.51158 7.87052 6.70995 8.01699 6.85643L17.8531 16.6956L16.7459 17.8003L6.9107 7.96269ZM26.8217 23.202L37.6452 33.1119C38.8542 34.3314 38.8505 36.3059 37.6339 37.5208C36.4144 38.7379 34.4404 38.7415 33.216 37.5315L23.2686 26.7475L26.8217 23.202ZM25.6671 22.1445L22.2073 25.597L21.1505 24.4514L24.5171 21.0911L25.6671 22.1445ZM32.2886 14.0613C31.604 14.0613 30.9307 13.9518 30.288 13.7357C30.0063 13.6414 29.6951 13.714 29.4847 13.9237C25.5604 17.8403 17.1046 26.2794 13.9909 29.3873C13.7805 29.5972 13.7074 29.9079 13.8025 30.1893C14.4532 32.1177 14.1419 34.1746 12.9482 35.8332C11.7578 37.4869 9.90544 38.4357 7.86655 38.4357C7.63752 38.4357 7.40972 38.4232 7.18406 38.3991L9.6703 35.937C9.8183 35.7905 9.90177 35.5909 9.90177 35.3825V33.1724C9.90177 32.9651 9.81921 32.7665 9.67244 32.62L7.43143 30.3834C7.28466 30.2369 7.0856 30.1545 6.87798 30.1545H4.66357C4.45473 30.1545 4.25476 30.2378 4.10768 30.3855L1.64101 32.8669C1.61655 32.6417 1.60431 32.4143 1.60431 32.1857C1.60431 30.1505 2.55466 28.3021 4.21195 27.114C5.87352 25.9226 7.93473 25.6116 9.86722 26.2614C10.1488 26.3563 10.4601 26.2833 10.6705 26.0734C10.7136 26.0306 26.1533 10.6208 26.1643 10.6098C26.3747 10.3998 26.4475 10.0895 26.3527 9.80809C25.7017 7.87969 26.0123 5.82341 27.2052 4.166C28.3965 2.51073 30.2491 1.56163 32.2883 1.56163C32.5244 1.56163 32.7589 1.57475 32.9913 1.60039L30.5567 4.06651C30.4124 4.21269 30.3317 4.40953 30.3317 4.61461V6.82469C30.3317 7.02733 30.4103 7.22173 30.5512 7.3673L32.714 9.60393C32.8614 9.75652 33.0647 9.84258 33.2772 9.84258H35.4916C35.7001 9.84258 35.9001 9.75957 36.0472 9.61156L38.5139 7.13048C38.5383 7.3557 38.5506 7.58306 38.5506 7.81163C38.5506 11.2577 35.7414 14.0613 32.2886 14.0613Z" fill="#1E1E1E"/>
<path d="M24.4219 14.5591L14.6264 24.3354C14.321 24.6403 14.321 25.135 14.6264 25.4401C14.9322 25.7453 15.4279 25.7453 15.7336 25.4401L25.5291 15.6638C25.8349 15.3589 25.8349 14.8643 25.5291 14.5591C25.2233 14.2539 24.7277 14.2539 24.4219 14.5591Z" fill="#1E1E1E"/>
<path d="M34.3135 35.3125C34.6193 35.6168 35.1149 35.6168 35.4207 35.3107C35.7259 35.0052 35.725 34.5105 35.4189 34.206L28.3632 27.1866C28.0571 26.882 27.5611 26.883 27.2563 27.1884C26.9508 27.4942 26.9517 27.9886 27.2578 28.2932L34.3135 35.3125Z" fill="#1E1E1E"/>
</g>
<defs>
<clipPath id="clip0">
<rect width="40" height="40" fill="white"/>
</clipPath>
</defs>
</svg>
